<svg width="169" height="171" viewBox="0 0 169 171" fill="none" xmlns="http://www.w3.org/2000/svg">
<g clip-path="url(#clip0_32_750)">
<path d="M84.5 0.457886C84.5 0.457886 80.8817 5.08728 79.4342 5.85885C78.9785 6.103 78.2363 6.19338 77.3646 6.2989C75.4682 6.52493 72.9617 6.82933 71.4743 8.94512C69.3034 12.0314 27.3317 80.7008 25.8844 85.33C24.4371 89.9597 20.8188 134.71 20.8188 134.71H148.181C148.181 134.71 144.563 89.9597 143.115 85.33C141.668 80.7008 99.6968 12.0314 97.5259 8.94512C96.0383 6.82933 93.5318 6.52493 91.6354 6.2989C90.7637 6.19338 90.0215 6.103 89.5658 5.85885C88.1183 5.08728 84.5 0.457886 84.5 0.457886Z" fill="#F6F3ED"/>
<path d="M76.5398 25.9197L85.2234 12.0315L92.4601 25.9197L103.315 22.0618L101.868 42.8941C100.42 42.1226 96.6573 40.5794 93.1835 40.5794C89.7103 40.5794 86.4297 42.1226 85.2234 42.8941C84.2588 42.1226 81.4605 40.5794 77.9872 40.5794C74.5135 40.5794 69.7857 42.1226 67.856 42.8941L65.6851 22.0618L76.5398 25.9197Z" fill="black"/>
<path fill-rule="evenodd" clip-rule="evenodd" d="M51.2124 134.711C51.2125 107.706 52.3704 96.1324 59.8963 96.1324C77.9076 96.1324 77.987 95.3675 78.7016 88.5088L78.711 88.4169H84.5002H85.2242H91.0129L91.0228 88.5088C91.7369 95.3675 91.8168 96.1324 109.828 96.1324C117.354 96.1324 118.512 107.706 118.512 134.711H85.2242H84.5002H51.2124Z" fill="black"/>
<path d="M106.209 66.8131C106.209 83.016 96.162 94.5895 85.2234 94.5895C74.2854 94.5895 62.7905 83.016 62.7905 66.8131C62.7905 53.1771 74.2854 45.2094 85.2234 45.2094C96.162 45.2094 106.209 53.1771 106.209 66.8131Z" fill="black"/>
</g>
<path d="M86.3339 144.797V143.135H88.8895C89.4121 143.135 89.8145 143.004 90.0967 142.743C90.3893 142.471 90.5357 142.1 90.5357 141.63C90.5357 141.201 90.3893 140.846 90.0967 140.564C89.8145 140.271 89.4121 140.125 88.8895 140.125H86.3339V138.385H89.0776C89.7883 138.385 90.4102 138.526 90.9433 138.808C91.4868 139.08 91.9049 139.456 92.1976 139.937C92.5007 140.418 92.6522 140.972 92.6522 141.599C92.6522 142.247 92.5007 142.811 92.1976 143.292C91.9049 143.762 91.4868 144.133 90.9433 144.405C90.3998 144.666 89.7674 144.797 89.0462 144.797H86.3339ZM84.7661 149.406V138.385H86.8983V149.406H84.7661ZM90.7865 149.406L87.1492 144.64L89.109 144.029L93.3734 149.406H90.7865Z" fill="#F6F3ED"/>
<path d="M74.8638 149.406V138.385H76.996V149.406H74.8638ZM76.4316 149.406V147.525H82.5304V149.406H76.4316ZM76.4316 144.687V142.869H81.9816V144.687H76.4316ZM76.4316 140.266V138.385H82.452V140.266H76.4316Z" fill="#F6F3ED"/>
<path d="M66.4077 145.314V143.574H68.9632C69.2977 143.574 69.6008 143.506 69.8725 143.37C70.1443 143.234 70.3586 143.041 70.5153 142.79C70.6721 142.529 70.7505 142.215 70.7505 141.85C70.7505 141.494 70.6721 141.186 70.5153 140.925C70.3586 140.663 70.1443 140.465 69.8725 140.329C69.6008 140.193 69.2977 140.125 68.9632 140.125H66.4077V138.385H69.1827C69.883 138.385 70.5101 138.526 71.0641 138.808C71.6285 139.09 72.0727 139.493 72.3967 140.015C72.7207 140.527 72.8827 141.139 72.8827 141.85C72.8827 142.56 72.7207 143.177 72.3967 143.7C72.0727 144.212 71.6285 144.609 71.0641 144.891C70.5101 145.173 69.883 145.314 69.1827 145.314H66.4077ZM64.8398 149.406V138.385H66.9721V149.406H64.8398Z" fill="#F6F3ED"/>
<path d="M52.4692 149.406L56.9062 138.385H58.6464L63.0677 149.406H60.7943L57.3765 140.36H58.1604L54.6955 149.406H52.4692ZM54.821 147.353V145.565H60.7473V147.353H54.821Z" fill="#F6F3ED"/>
<path d="M45.6547 145.314V143.574H48.2103C48.5447 143.574 48.8478 143.506 49.1196 143.37C49.3914 143.234 49.6056 143.041 49.7624 142.79C49.9192 142.529 49.9976 142.215 49.9976 141.85C49.9976 141.494 49.9192 141.186 49.7624 140.925C49.6056 140.663 49.3914 140.465 49.1196 140.329C48.8478 140.193 48.5447 140.125 48.2103 140.125H45.6547V138.385H48.4298C49.1301 138.385 49.7572 138.526 50.3111 138.808C50.8756 139.09 51.3198 139.493 51.6438 140.015C51.9678 140.527 52.1298 141.139 52.1298 141.85C52.1298 142.56 51.9678 143.177 51.6438 143.7C51.3198 144.212 50.8756 144.609 50.3111 144.891C49.7572 145.173 49.1301 145.314 48.4298 145.314H45.6547ZM44.0869 149.406V138.385H46.2191V149.406H44.0869Z" fill="#F6F3ED"/>
<path d="M165.304 149.406C164.493 149.406 163.796 149.259 163.213 148.965C162.64 148.671 162.12 148.229 161.652 147.64L162.941 146.27C163.237 146.686 163.581 147.011 163.972 147.245C164.364 147.468 164.841 147.58 165.405 147.58C165.911 147.58 166.312 147.473 166.608 147.26C166.913 147.047 167.066 146.752 167.066 146.377C167.066 146.052 166.98 145.788 166.808 145.585C166.636 145.382 166.407 145.21 166.121 145.068C165.844 144.926 165.533 144.799 165.19 144.687C164.855 144.565 164.517 144.428 164.173 144.276C163.839 144.124 163.528 143.936 163.242 143.713C162.965 143.479 162.74 143.185 162.569 142.83C162.397 142.465 162.311 142.008 162.311 141.46C162.311 140.81 162.459 140.257 162.755 139.8C163.051 139.344 163.457 138.994 163.972 138.75C164.488 138.506 165.07 138.385 165.72 138.385C166.407 138.385 167.028 138.522 167.582 138.796C168.136 139.07 168.589 139.425 168.942 139.861L167.653 141.231C167.357 140.886 167.052 140.633 166.737 140.47C166.431 140.308 166.083 140.227 165.691 140.227C165.242 140.227 164.889 140.318 164.631 140.501C164.373 140.683 164.244 140.947 164.244 141.292C164.244 141.587 164.33 141.825 164.502 142.008C164.674 142.19 164.898 142.348 165.175 142.48C165.462 142.612 165.772 142.739 166.106 142.86C166.45 142.982 166.789 143.119 167.123 143.271C167.467 143.424 167.777 143.621 168.054 143.865C168.341 144.109 168.57 144.423 168.742 144.809C168.914 145.184 169 145.651 169 146.209C169 147.204 168.67 147.986 168.011 148.554C167.353 149.122 166.45 149.406 165.304 149.406Z" fill="#F6F3ED"/>
<path d="M153.416 144.797V143.135H155.962C156.482 143.135 156.883 143.004 157.164 142.743C157.455 142.471 157.601 142.1 157.601 141.63C157.601 141.201 157.455 140.846 157.164 140.564C156.883 140.271 156.482 140.125 155.962 140.125H153.416V138.385H156.149C156.857 138.385 157.476 138.526 158.007 138.808C158.548 139.08 158.965 139.456 159.256 139.937C159.558 140.418 159.709 140.972 159.709 141.599C159.709 142.247 159.558 142.811 159.256 143.292C158.965 143.762 158.548 144.133 158.007 144.405C157.466 144.666 156.836 144.797 156.118 144.797H153.416ZM151.855 149.406V138.385H153.979V149.406H151.855ZM157.851 149.406L154.228 144.64L156.18 144.029L160.427 149.406H157.851Z" fill="#F6F3ED"/>
<path d="M144.52 149.406C143.83 149.406 143.184 149.264 142.583 148.981C141.99 148.697 141.47 148.307 141.021 147.81C140.582 147.303 140.236 146.716 139.985 146.047C139.734 145.368 139.608 144.643 139.608 143.873C139.608 143.102 139.73 142.388 139.972 141.729C140.223 141.06 140.568 140.478 141.008 139.981C141.457 139.474 141.977 139.084 142.569 138.81C143.161 138.527 143.803 138.385 144.493 138.385C145.193 138.385 145.839 138.527 146.431 138.81C147.024 139.084 147.539 139.474 147.979 139.981C148.428 140.478 148.777 141.06 149.029 141.729C149.28 142.398 149.405 143.118 149.405 143.888C149.405 144.658 149.28 145.378 149.029 146.047C148.777 146.716 148.428 147.303 147.979 147.81C147.539 148.307 147.024 148.697 146.431 148.981C145.848 149.264 145.211 149.406 144.52 149.406ZM144.493 147.476C145.104 147.476 145.633 147.324 146.081 147.02C146.53 146.716 146.88 146.295 147.131 145.758C147.391 145.221 147.521 144.592 147.521 143.873C147.521 143.346 147.45 142.864 147.306 142.428C147.163 141.993 146.956 141.618 146.687 141.304C146.418 140.979 146.099 140.731 145.732 140.559C145.364 140.386 144.951 140.3 144.493 140.3C143.901 140.3 143.377 140.452 142.919 140.756C142.47 141.05 142.116 141.466 141.856 142.003C141.605 142.54 141.479 143.163 141.479 143.873C141.479 144.41 141.551 144.901 141.694 145.347C141.847 145.793 142.053 146.173 142.313 146.488C142.583 146.802 142.901 147.045 143.269 147.217C143.646 147.39 144.054 147.476 144.493 147.476Z" fill="#F6F3ED"/>
<path d="M133.464 149.406C132.652 149.406 131.955 149.259 131.373 148.965C130.8 148.671 130.279 148.229 129.812 147.64L131.101 146.27C131.397 146.686 131.74 147.011 132.132 147.245C132.523 147.468 133.001 147.58 133.564 147.58C134.07 147.58 134.471 147.473 134.767 147.26C135.073 147.047 135.226 146.752 135.226 146.377C135.226 146.052 135.14 145.788 134.968 145.585C134.796 145.382 134.567 145.21 134.28 145.068C134.003 144.926 133.693 144.799 133.349 144.687C133.015 144.565 132.676 144.428 132.332 144.276C131.998 144.124 131.688 143.936 131.401 143.713C131.124 143.479 130.9 143.185 130.728 142.83C130.556 142.465 130.47 142.008 130.47 141.46C130.47 140.81 130.618 140.257 130.914 139.8C131.21 139.344 131.616 138.994 132.132 138.75C132.648 138.506 133.23 138.385 133.879 138.385C134.567 138.385 135.188 138.522 135.741 138.796C136.295 139.07 136.749 139.425 137.102 139.861L135.813 141.231C135.517 140.886 135.211 140.633 134.896 140.47C134.591 140.308 134.242 140.227 133.851 140.227C133.402 140.227 133.049 140.318 132.791 140.501C132.533 140.683 132.404 140.947 132.404 141.292C132.404 141.587 132.49 141.825 132.662 142.008C132.834 142.19 133.058 142.348 133.335 142.48C133.622 142.612 133.932 142.739 134.266 142.86C134.61 142.982 134.949 143.119 135.283 143.271C135.627 143.424 135.937 143.621 136.214 143.865C136.5 144.109 136.73 144.423 136.902 144.809C137.073 145.184 137.159 145.651 137.159 146.209C137.159 147.204 136.83 147.986 136.171 148.554C135.512 149.122 134.61 149.406 133.464 149.406Z" fill="#F6F3ED"/>
<path d="M124.275 149.406C123.328 149.406 122.515 149.259 121.836 148.965C121.167 148.671 120.56 148.229 120.014 147.64L121.518 146.27C121.863 146.686 122.265 147.011 122.721 147.245C123.178 147.468 123.735 147.58 124.392 147.58C124.983 147.58 125.451 147.473 125.796 147.26C126.152 147.047 126.331 146.752 126.331 146.377C126.331 146.052 126.23 145.788 126.03 145.585C125.829 145.382 125.562 145.21 125.228 145.068C124.905 144.926 124.543 144.799 124.142 144.687C123.752 144.565 123.356 144.428 122.955 144.276C122.565 144.124 122.203 143.936 121.869 143.713C121.546 143.479 121.284 143.185 121.084 142.83C120.883 142.465 120.783 142.008 120.783 141.46C120.783 140.81 120.956 140.257 121.301 139.8C121.646 139.344 122.12 138.994 122.721 138.75C123.323 138.506 124.002 138.385 124.76 138.385C125.562 138.385 126.286 138.522 126.932 138.796C127.578 139.07 128.108 139.425 128.52 139.861L127.016 141.231C126.67 140.886 126.314 140.633 125.946 140.47C125.59 140.308 125.183 140.227 124.727 140.227C124.203 140.227 123.791 140.318 123.49 140.501C123.189 140.683 123.039 140.947 123.039 141.292C123.039 141.587 123.139 141.825 123.34 142.008C123.54 142.19 123.802 142.348 124.125 142.48C124.459 142.612 124.821 142.739 125.211 142.86C125.612 142.982 126.008 143.119 126.398 143.271C126.799 143.424 127.161 143.621 127.484 143.865C127.818 144.109 128.085 144.423 128.286 144.809C128.486 145.184 128.587 145.651 128.587 146.209C128.587 147.204 128.202 147.986 127.434 148.554C126.665 149.122 125.612 149.406 124.275 149.406Z" fill="#F6F3ED"/>
<path d="M116.34 149.406V138.385H118.79V149.406H116.34Z" fill="#F6F3ED"/>
<path d="M110.262 149.406C109.559 149.406 108.906 149.269 108.304 148.995C107.701 148.711 107.172 148.32 106.715 147.823C106.268 147.316 105.921 146.727 105.674 146.057C105.437 145.387 105.318 144.667 105.318 143.896C105.318 143.124 105.437 142.404 105.674 141.734C105.921 141.064 106.268 140.48 106.715 139.983C107.172 139.486 107.697 139.095 108.29 138.811C108.893 138.527 109.55 138.385 110.262 138.385C111.029 138.385 111.704 138.527 112.289 138.811C112.873 139.085 113.389 139.466 113.836 139.953L112.576 141.353C112.311 141.028 111.987 140.775 111.604 140.592C111.22 140.409 110.773 140.318 110.262 140.318C109.815 140.318 109.404 140.404 109.029 140.577C108.664 140.739 108.345 140.983 108.071 141.308C107.797 141.622 107.587 142.003 107.441 142.449C107.295 142.886 107.222 143.368 107.222 143.896C107.222 144.433 107.295 144.921 107.441 145.357C107.587 145.793 107.797 146.174 108.071 146.499C108.345 146.813 108.664 147.057 109.029 147.229C109.404 147.402 109.815 147.488 110.262 147.488C110.801 147.488 111.262 147.397 111.645 147.214C112.038 147.032 112.366 146.773 112.631 146.438L113.891 147.838C113.443 148.336 112.923 148.721 112.33 148.995C111.736 149.269 111.047 149.406 110.262 149.406Z" fill="#F6F3ED"/>
<path d="M99.1739 149.406C98.3623 149.406 97.6652 149.259 97.0827 148.965C96.5098 148.671 95.9894 148.229 95.5215 147.64L96.8106 146.27C97.1066 146.686 97.4503 147.011 97.8419 147.245C98.2334 147.468 98.7108 147.58 99.2742 147.58C99.7803 147.58 100.181 147.473 100.477 147.26C100.783 147.047 100.936 146.752 100.936 146.377C100.936 146.052 100.85 145.788 100.678 145.585C100.506 145.382 100.277 145.21 99.9903 145.068C99.7134 144.926 99.4031 144.799 99.0593 144.687C98.7251 144.565 98.3861 144.428 98.0424 144.276C97.7082 144.124 97.3978 143.936 97.1114 143.713C96.8344 143.479 96.6101 143.185 96.4382 142.83C96.2663 142.465 96.1804 142.008 96.1804 141.46C96.1804 140.81 96.3284 140.257 96.6244 139.8C96.9204 139.344 97.3262 138.994 97.8419 138.75C98.3575 138.506 98.94 138.385 99.5893 138.385C100.277 138.385 100.897 138.522 101.451 138.796C102.005 139.07 102.459 139.425 102.812 139.861L101.523 141.231C101.227 140.886 100.921 140.633 100.606 140.47C100.301 140.308 99.9521 140.227 99.5606 140.227C99.1118 140.227 98.7585 140.318 98.5007 140.501C98.2429 140.683 98.114 140.947 98.114 141.292C98.114 141.587 98.1999 141.825 98.3718 142.008C98.5437 142.19 98.7681 142.348 99.045 142.48C99.3315 142.612 99.6418 142.739 99.976 142.86C100.32 142.982 100.659 143.119 100.993 143.271C101.337 143.424 101.647 143.621 101.924 143.865C102.21 144.109 102.44 144.423 102.611 144.809C102.783 145.184 102.869 145.651 102.869 146.209C102.869 147.204 102.54 147.986 101.881 148.554C101.222 149.122 100.32 149.406 99.1739 149.406Z" fill="#F6F3ED"/>
<path d="M39.1579 149.406L34.7857 143.653L39.0432 138.385H41.4802L36.7352 144.107L36.7496 143.119L41.6379 149.406H39.1579ZM33.0654 149.406V138.385H35.015V149.406H33.0654Z" fill="#F6F3ED"/>
<path d="M26.987 149.406C26.284 149.406 25.6313 149.269 25.0288 148.995C24.4262 148.711 23.8967 148.32 23.4402 147.823C22.9929 147.316 22.646 146.727 22.3995 146.057C22.1621 145.387 22.0435 144.667 22.0435 143.896C22.0435 143.124 22.1621 142.404 22.3995 141.734C22.646 141.064 22.9929 140.48 23.4402 139.983C23.8967 139.486 24.4217 139.095 25.0151 138.811C25.6176 138.527 26.2749 138.385 26.987 138.385C27.7539 138.385 28.4294 138.527 29.0137 138.811C29.598 139.085 30.1138 139.466 30.5611 139.953L29.3013 141.353C29.0365 141.028 28.7125 140.775 28.329 140.592C27.9456 140.409 27.4982 140.318 26.987 140.318C26.5397 140.318 26.1288 140.404 25.7545 140.577C25.3894 140.739 25.0698 140.983 24.796 141.308C24.5221 141.622 24.3121 142.003 24.166 142.449C24.02 142.886 23.9469 143.368 23.9469 143.896C23.9469 144.433 24.02 144.921 24.166 145.357C24.3121 145.793 24.5221 146.174 24.796 146.499C25.0698 146.813 25.3894 147.057 25.7545 147.229C26.1288 147.402 26.5397 147.488 26.987 147.488C27.5256 147.488 27.9867 147.397 28.3701 147.214C28.7627 147.032 29.0913 146.773 29.3561 146.438L30.6159 147.838C30.1686 148.336 29.6482 148.721 29.0548 148.995C28.4614 149.269 27.7721 149.406 26.987 149.406Z" fill="#F6F3ED"/>
<path d="M15.3229 149.406C14.5457 149.406 13.819 149.264 13.1428 148.981C12.4766 148.697 11.8912 148.307 11.3865 147.81C10.892 147.303 10.5034 146.716 10.2208 146.047C9.93818 145.368 9.79688 144.643 9.79688 143.873C9.79688 143.102 9.93313 142.388 10.2056 141.729C10.4883 141.06 10.8768 140.478 11.3714 139.981C11.8761 139.474 12.4615 139.084 13.1276 138.81C13.7938 138.527 14.5154 138.385 15.2926 138.385C16.0799 138.385 16.8066 138.527 17.4727 138.81C18.1389 139.084 18.7192 139.474 19.2138 139.981C19.7185 140.478 20.1121 141.06 20.3947 141.729C20.6773 142.398 20.8186 143.118 20.8186 143.888C20.8186 144.658 20.6773 145.378 20.3947 146.047C20.1121 146.716 19.7185 147.303 19.2138 147.81C18.7192 148.307 18.1389 148.697 17.4727 148.981C16.8167 149.264 16.1001 149.406 15.3229 149.406ZM15.2926 147.476C15.9789 147.476 16.5744 147.324 17.0791 147.02C17.5838 146.716 17.9774 146.295 18.26 145.758C18.5527 145.221 18.699 144.592 18.699 143.873C18.699 143.346 18.6183 142.864 18.4568 142.428C18.2953 141.993 18.0632 141.618 17.7604 141.304C17.4576 140.979 17.0993 140.731 16.6855 140.559C16.2716 140.386 15.8074 140.3 15.2926 140.3C14.6265 140.3 14.036 140.452 13.5213 140.756C13.0166 141.05 12.6179 141.466 12.3252 142.003C12.0426 142.54 11.9013 143.163 11.9013 143.873C11.9013 144.41 11.982 144.901 12.1435 145.347C12.3151 145.793 12.5473 146.173 12.84 146.488C13.1428 146.802 13.5011 147.045 13.9149 147.217C14.3388 147.39 14.798 147.476 15.2926 147.476Z" fill="#F6F3ED"/>
<path d="M1.56147 144.797V143.135H4.10666C4.62715 143.135 5.02793 143.004 5.30899 142.743C5.60047 142.471 5.74621 142.1 5.74621 141.63C5.74621 141.201 5.60047 140.846 5.30899 140.564C5.02793 140.271 4.62715 140.125 4.10666 140.125H1.56147V138.385H4.29404C5.00191 138.385 5.62129 138.526 6.15219 138.808C6.6935 139.08 7.10989 139.456 7.40136 139.937C7.70325 140.418 7.85419 140.972 7.85419 141.599C7.85419 142.247 7.70325 142.811 7.40136 143.292C7.10989 143.762 6.6935 144.133 6.15219 144.405C5.61088 144.666 4.98109 144.797 4.26281 144.797H1.56147ZM0 149.406V138.385H2.1236V149.406H0ZM5.99604 149.406L2.37343 144.64L4.32527 144.029L8.57246 149.406H5.99604Z" fill="#F6F3ED"/>
<path d="M139.327 170.625C137.832 170.625 136.706 170.127 135.949 169.131C135.212 168.135 134.843 166.63 134.843 164.618V156.937C134.843 154.904 135.282 153.36 136.158 152.304C137.055 151.228 138.35 150.69 140.044 150.69C141.757 150.69 143.053 151.258 143.929 152.394C144.826 153.509 145.195 155.044 145.035 156.996C145.035 157.176 144.955 157.265 144.796 157.265H142.495C142.315 157.265 142.246 157.166 142.285 156.966C142.405 155.791 142.266 154.884 141.867 154.247C141.469 153.589 140.871 153.26 140.074 153.26C139.237 153.26 138.619 153.569 138.221 154.187C137.822 154.785 137.623 155.721 137.623 156.996V164.379C137.623 165.694 137.792 166.64 138.131 167.218C138.49 167.776 139.097 168.055 139.954 168.055C140.771 168.055 141.389 167.726 141.807 167.069C142.226 166.411 142.435 165.415 142.435 164.08V162.645H140.253C140.074 162.645 139.984 162.536 139.984 162.317V160.703C139.984 160.503 140.074 160.404 140.253 160.404H144.886C145.045 160.404 145.125 160.503 145.125 160.703V166.262C145.125 167.198 145.135 167.955 145.155 168.533C145.195 169.111 145.244 169.639 145.304 170.117C145.344 170.337 145.264 170.446 145.065 170.446H143.272C143.112 170.446 143.023 170.356 143.003 170.177C142.963 169.938 142.933 169.659 142.913 169.34C142.893 169.002 142.873 168.593 142.853 168.115H142.823C142.525 168.892 142.086 169.51 141.508 169.968C140.95 170.406 140.223 170.625 139.327 170.625Z" fill="#F6F3ED"/>
<path d="M121.167 170.446C121.007 170.446 120.928 170.347 120.928 170.147V151.168C120.928 150.969 121.007 150.869 121.167 150.869H124.305C124.465 150.869 124.564 150.939 124.604 151.078L127.473 161.42C127.613 161.938 127.762 162.516 127.922 163.153C128.081 163.771 128.23 164.399 128.37 165.036C128.509 165.654 128.629 166.212 128.729 166.71H128.788C128.749 166.312 128.719 165.853 128.699 165.335C128.679 164.817 128.659 164.289 128.639 163.751C128.619 163.213 128.599 162.685 128.579 162.167C128.579 161.649 128.579 161.191 128.579 160.792V151.168C128.579 150.969 128.659 150.869 128.818 150.869H130.94C131.12 150.869 131.209 150.969 131.209 151.168V170.147C131.209 170.347 131.12 170.446 130.94 170.446H127.832C127.692 170.446 127.603 170.386 127.563 170.267L124.724 160.165C124.445 159.188 124.205 158.232 124.006 157.295C123.807 156.339 123.618 155.462 123.438 154.665H123.379C123.418 155.243 123.448 155.91 123.468 156.668C123.488 157.405 123.508 158.152 123.528 158.909C123.548 159.666 123.558 160.334 123.558 160.912V170.147C123.558 170.347 123.478 170.446 123.319 170.446H121.167Z" fill="#F6F3ED"/>
<path d="M114.484 170.446C114.325 170.446 114.245 170.347 114.245 170.147V151.168C114.245 150.969 114.325 150.869 114.484 150.869H116.756C116.935 150.869 117.025 150.969 117.025 151.168V170.147C117.025 170.347 116.935 170.446 116.756 170.446H114.484Z" fill="#F6F3ED"/>
<path d="M105.321 170.446C105.141 170.446 105.052 170.347 105.052 170.147V153.44H101.943C101.764 153.44 101.674 153.33 101.674 153.111V151.168C101.674 150.969 101.764 150.869 101.943 150.869H110.97C111.129 150.869 111.209 150.969 111.209 151.168V153.111C111.209 153.33 111.129 153.44 110.97 153.44H107.831V170.147C107.831 170.347 107.742 170.446 107.562 170.446H105.321Z" fill="#F6F3ED"/>
<path d="M93.7636 170.446C93.5843 170.446 93.4946 170.347 93.4946 170.147V151.168C93.4946 150.969 93.5843 150.869 93.7636 150.869H96.0053C96.1846 150.869 96.2742 150.969 96.2742 151.168V167.876H101.056C101.236 167.876 101.325 167.985 101.325 168.205V170.147C101.325 170.347 101.236 170.446 101.056 170.446H93.7636Z" fill="#F6F3ED"/>
<path d="M84.5643 170.625C82.8308 170.625 81.5556 170.097 80.7386 169.041C79.9217 167.965 79.5132 166.351 79.5132 164.199V151.168C79.5132 150.969 79.5929 150.869 79.7523 150.869H82.0238C82.1832 150.869 82.2629 150.969 82.2629 151.168V164.14C82.2629 165.534 82.4422 166.541 82.8009 167.158C83.1795 167.756 83.7673 168.055 84.5643 168.055C85.3813 168.055 85.9691 167.756 86.3277 167.158C86.7063 166.541 86.8956 165.534 86.8956 164.14V151.168C86.8956 150.969 86.9753 150.869 87.1347 150.869H89.4062C89.5656 150.869 89.6453 150.969 89.6453 151.168V164.199C89.6453 166.351 89.2169 167.965 88.3601 169.041C87.5233 170.097 86.258 170.625 84.5643 170.625Z" fill="#F6F3ED"/>
<path d="M71.4945 170.625C70.3189 170.625 69.3824 170.386 68.685 169.908C67.9876 169.43 67.4994 168.772 67.2205 167.936C66.9614 167.079 66.8718 166.082 66.9515 164.947C66.9714 164.728 67.0611 164.618 67.2205 164.618H69.4322C69.6115 164.618 69.6912 164.728 69.6713 164.947C69.5518 165.983 69.6613 166.77 70.0001 167.308C70.3388 167.846 70.8569 168.115 71.5543 168.115C72.2118 168.115 72.7 167.926 73.0188 167.547C73.3376 167.148 73.497 166.521 73.497 165.664C73.497 164.947 73.3874 164.339 73.1683 163.841C72.9491 163.323 72.5804 162.874 72.0624 162.496L69.5816 160.553C68.7049 159.876 68.0573 159.138 67.6389 158.341C67.2205 157.524 67.0212 156.528 67.0411 155.353C67.0611 153.858 67.4496 152.712 68.2068 151.915C68.964 151.098 70.0499 150.69 71.4646 150.69C73.1184 150.69 74.3239 151.178 75.0811 152.154C75.8383 153.131 76.1372 154.476 75.9778 156.189C75.9778 156.448 75.8981 156.578 75.7386 156.578H73.4671C73.3077 156.578 73.238 156.448 73.2579 156.189C73.3575 155.273 73.2579 154.546 72.959 154.008C72.6601 153.47 72.1919 153.201 71.5543 153.201C71.0163 153.201 70.5879 153.38 70.2691 153.739C69.9702 154.077 69.8108 154.605 69.7909 155.323C69.7909 156.02 69.9204 156.608 70.1794 157.086C70.4384 157.564 70.817 158.003 71.3152 158.401L73.7361 160.254C74.3538 160.732 74.842 161.221 75.2007 161.719C75.5792 162.217 75.8482 162.785 76.0076 163.422C76.187 164.04 76.2766 164.777 76.2766 165.634C76.2766 167.208 75.8881 168.434 75.111 169.31C74.3538 170.187 73.1483 170.625 71.4945 170.625Z" fill="#F6F3ED"/>
<path d="M53.6039 170.446C53.4444 170.446 53.3647 170.347 53.3647 170.147V151.168C53.3647 150.969 53.4444 150.869 53.6039 150.869H56.7421C56.9015 150.869 57.0012 150.939 57.041 151.078L59.9103 161.42C60.0498 161.938 60.1992 162.516 60.3586 163.153C60.518 163.771 60.6675 164.399 60.8069 165.036C60.9464 165.654 61.066 166.212 61.1656 166.71H61.2254C61.1855 166.312 61.1556 165.853 61.1357 165.335C61.1158 164.817 61.0959 164.289 61.0759 163.751C61.056 163.213 61.0361 162.685 61.0162 162.167C61.0162 161.649 61.0162 161.191 61.0162 160.792V151.168C61.0162 150.969 61.0959 150.869 61.2553 150.869H63.3773C63.5567 150.869 63.6463 150.969 63.6463 151.168V170.147C63.6463 170.347 63.5567 170.446 63.3773 170.446H60.269C60.1295 170.446 60.0398 170.386 60 170.267L57.1606 160.165C56.8816 159.188 56.6425 158.232 56.4432 157.295C56.244 156.339 56.0547 155.462 55.8754 154.665H55.8156C55.8554 155.243 55.8853 155.91 55.9053 156.668C55.9252 157.405 55.9451 158.152 55.965 158.909C55.985 159.666 55.9949 160.334 55.9949 160.912V170.147C55.9949 170.347 55.9152 170.446 55.7558 170.446H53.6039Z" fill="#F6F3ED"/>
<path d="M44.4628 170.625C42.789 170.625 41.5038 170.127 40.6072 169.131C39.7105 168.135 39.2622 166.64 39.2622 164.648V156.727C39.2622 154.695 39.7105 153.181 40.6072 152.184C41.5038 151.188 42.789 150.69 44.4628 150.69C46.1565 150.69 47.4516 151.188 48.3483 152.184C49.2449 153.181 49.6932 154.695 49.6932 156.727V164.648C49.6932 166.64 49.2449 168.135 48.3483 169.131C47.4516 170.127 46.1565 170.625 44.4628 170.625ZM44.4628 168.055C45.2797 168.055 45.8875 167.776 46.286 167.218C46.7044 166.66 46.9136 165.754 46.9136 164.498V156.847C46.9136 155.572 46.7044 154.655 46.286 154.097C45.8875 153.539 45.2797 153.26 44.4628 153.26C43.6658 153.26 43.058 153.539 42.6396 154.097C42.2411 154.655 42.0418 155.572 42.0418 156.847V164.498C42.0418 165.754 42.2411 166.66 42.6396 167.218C43.058 167.776 43.6658 168.055 44.4628 168.055Z" fill="#F6F3ED"/>
<path d="M30.9208 170.625C29.2271 170.625 27.932 170.117 27.0353 169.101C26.1586 168.065 25.7202 166.481 25.7202 164.349V156.966C25.7202 154.874 26.1586 153.31 27.0353 152.274C27.932 151.218 29.2271 150.69 30.9208 150.69C32.1363 150.69 33.1425 150.969 33.9395 151.527C34.7365 152.065 35.3044 152.832 35.6432 153.828C36.0018 154.824 36.1014 156.01 35.942 157.385C35.9022 157.584 35.8225 157.684 35.7029 157.684H33.4015C33.2023 157.684 33.1226 157.564 33.1624 157.325C33.262 156.01 33.1325 155.004 32.7739 154.306C32.4152 153.609 31.7975 153.26 30.9208 153.26C30.1038 153.26 29.4961 153.559 29.0976 154.157C28.6991 154.755 28.4998 155.741 28.4998 157.116V164.17C28.4998 165.544 28.6991 166.541 29.0976 167.158C29.516 167.756 30.1238 168.055 30.9208 168.055C31.8772 168.055 32.5148 167.686 32.8336 166.949C33.1724 166.212 33.3019 165.216 33.2222 163.96C33.1823 163.741 33.262 163.632 33.4613 163.632H35.6432C35.8225 163.632 35.9321 163.741 35.9719 163.96C36.1114 166.053 35.7527 167.686 34.8959 168.862C34.0591 170.038 32.734 170.625 30.9208 170.625Z" fill="#F6F3ED"/>
<defs>
<clipPath id="clip0_32_750">
<rect width="127.362" height="134.71" fill="white" transform="translate(20.8188)"/>
</clipPath>
</defs>
</svg>
