<svg width="180" height="61" viewBox="0 0 180 61" fill="none" xmlns="http://www.w3.org/2000/svg">
<path d="M132.342 39.7588C131.489 39.7588 130.757 39.6133 130.144 39.3223C129.542 39.0314 128.996 38.5949 128.504 38.0129L129.859 36.6583C130.17 37.0697 130.531 37.3908 130.942 37.6216C131.354 37.8423 131.855 37.9527 132.447 37.9527C132.979 37.9527 133.401 37.8473 133.712 37.6366C134.033 37.4259 134.193 37.1349 134.193 36.7637C134.193 36.4426 134.103 36.1817 133.922 35.981C133.742 35.7803 133.501 35.6097 133.2 35.4693C132.909 35.3288 132.583 35.2034 132.222 35.093C131.87 34.9726 131.514 34.8371 131.153 34.6866C130.802 34.5361 130.476 34.3505 130.175 34.1297C129.884 33.8989 129.648 33.6079 129.467 33.2567C129.287 32.8955 129.196 32.444 129.196 31.9021C129.196 31.26 129.352 30.7131 129.663 30.2616C129.974 29.81 130.4 29.4639 130.942 29.223C131.484 28.9822 132.096 28.8618 132.778 28.8618C133.501 28.8618 134.153 28.9973 134.735 29.2682C135.317 29.5391 135.794 29.8903 136.165 30.3218L134.81 31.6764C134.499 31.3352 134.178 31.0844 133.847 30.9238C133.526 30.7633 133.16 30.683 132.748 30.683C132.277 30.683 131.905 30.7733 131.635 30.9539C131.364 31.1345 131.228 31.3954 131.228 31.7366C131.228 32.0276 131.318 32.2634 131.499 32.444C131.68 32.6246 131.915 32.7801 132.206 32.9106C132.507 33.041 132.834 33.1664 133.185 33.2868C133.546 33.4073 133.902 33.5427 134.253 33.6932C134.615 33.8437 134.941 34.0394 135.232 34.2802C135.533 34.521 135.774 34.8321 135.954 35.2134C136.135 35.5846 136.225 36.0462 136.225 36.5981C136.225 37.5814 135.879 38.3541 135.187 38.916C134.494 39.4779 133.546 39.7588 132.342 39.7588Z" fill="#52B7A0"/>
<path d="M120.882 35.1832V33.5878H123.335C123.837 33.5878 124.223 33.4624 124.494 33.2116C124.775 32.9507 124.915 32.5945 124.915 32.1429C124.915 31.7315 124.775 31.3904 124.494 31.1194C124.223 30.8385 123.837 30.698 123.335 30.698H120.882V29.0273H123.516C124.198 29.0273 124.795 29.1628 125.307 29.4337C125.828 29.6946 126.23 30.0558 126.511 30.5174C126.802 30.979 126.947 31.5108 126.947 32.1128C126.947 32.7349 126.802 33.2768 126.511 33.7383C126.23 34.1899 125.828 34.5461 125.307 34.807C124.785 35.0578 124.178 35.1832 123.485 35.1832H120.882ZM119.376 39.6083V29.0273H121.423V39.6083H119.376ZM125.156 39.6083L121.664 35.0327L123.546 34.4457L127.64 39.6083H125.156Z" fill="#52B7A0"/>
<path d="M111.538 39.7739C110.765 39.7739 110.043 39.6334 109.371 39.3524C108.708 39.0715 108.127 38.6852 107.625 38.1935C107.133 37.6918 106.747 37.1098 106.466 36.4476C106.185 35.7753 106.044 35.0579 106.044 34.2953C106.044 33.5327 106.18 32.8253 106.451 32.1731C106.732 31.5108 107.118 30.9339 107.61 30.4422C108.111 29.9405 108.693 29.5542 109.356 29.2832C110.018 29.0023 110.735 28.8618 111.508 28.8618C112.291 28.8618 113.013 29.0023 113.675 29.2832C114.338 29.5542 114.915 29.9405 115.406 30.4422C115.908 30.9339 116.299 31.5108 116.58 32.1731C116.861 32.8353 117.002 33.5477 117.002 34.3103C117.002 35.0729 116.861 35.7853 116.58 36.4476C116.299 37.1098 115.908 37.6918 115.406 38.1935C114.915 38.6852 114.338 39.0715 113.675 39.3524C113.023 39.6334 112.311 39.7739 111.538 39.7739ZM111.508 37.8624C112.19 37.8624 112.782 37.7119 113.284 37.4108C113.786 37.1098 114.177 36.6934 114.458 36.1616C114.749 35.6298 114.894 35.0077 114.894 34.2953C114.894 33.7735 114.814 33.2969 114.654 32.8654C114.493 32.4339 114.262 32.0627 113.961 31.7516C113.66 31.4305 113.304 31.1847 112.893 31.0141C112.481 30.8435 112.02 30.7583 111.508 30.7583C110.846 30.7583 110.259 30.9088 109.747 31.2098C109.245 31.5008 108.849 31.9122 108.558 32.444C108.277 32.9758 108.137 33.5929 108.137 34.2953C108.137 34.8271 108.217 35.3137 108.377 35.7552C108.548 36.1967 108.779 36.573 109.07 36.8841C109.371 37.1951 109.727 37.4359 110.138 37.6065C110.56 37.7771 111.016 37.8624 111.508 37.8624Z" fill="#52B7A0"/>
<path d="M100.246 39.7588C99.3933 39.7588 98.6609 39.6133 98.0488 39.3223C97.4467 39.0314 96.8999 38.5949 96.4082 38.0129L97.7628 36.6583C98.0739 37.0697 98.4351 37.3908 98.8465 37.6216C99.2579 37.8423 99.7596 37.9527 100.352 37.9527C100.883 37.9527 101.305 37.8473 101.616 37.6366C101.937 37.4259 102.098 37.1349 102.098 36.7637C102.098 36.4426 102.007 36.1817 101.827 35.981C101.646 35.7803 101.405 35.6097 101.104 35.4693C100.813 35.3288 100.487 35.2034 100.126 35.093C99.7746 34.9726 99.4184 34.8371 99.0572 34.6866C98.706 34.5361 98.3799 34.3505 98.0789 34.1297C97.7879 33.8989 97.5521 33.6079 97.3715 33.2567C97.1909 32.8955 97.1006 32.444 97.1006 31.9021C97.1006 31.26 97.2561 30.7131 97.5671 30.2616C97.8782 29.81 98.3046 29.4639 98.8465 29.223C99.3883 28.9822 100 28.8618 100.683 28.8618C101.405 28.8618 102.057 28.9973 102.639 29.2682C103.221 29.5391 103.698 29.8903 104.069 30.3218L102.715 31.6764C102.404 31.3352 102.082 31.0844 101.751 30.9238C101.43 30.7633 101.064 30.683 100.653 30.683C100.181 30.683 99.8098 30.7733 99.5388 30.9539C99.2679 31.1345 99.1325 31.3954 99.1325 31.7366C99.1325 32.0276 99.2228 32.2634 99.4034 32.444C99.584 32.6246 99.8198 32.7801 100.111 32.9106C100.412 33.041 100.738 33.1664 101.089 33.2868C101.45 33.4073 101.807 33.5427 102.158 33.6932C102.519 33.8437 102.845 34.0394 103.136 34.2802C103.437 34.521 103.678 34.8321 103.859 35.2134C104.039 35.5846 104.129 36.0462 104.129 36.5981C104.129 37.5814 103.783 38.3541 103.091 38.916C102.399 39.4779 101.45 39.7588 100.246 39.7588Z" fill="#52B7A0"/>
<path d="M91.1891 39.7588C90.3362 39.7588 89.6037 39.6133 88.9916 39.3223C88.3896 39.0314 87.8427 38.5949 87.3511 38.0129L88.7057 36.6583C89.0167 37.0697 89.378 37.3908 89.7894 37.6216C90.2008 37.8423 90.7025 37.9527 91.2945 37.9527C91.8263 37.9527 92.2477 37.8473 92.5588 37.6366C92.8799 37.4259 93.0404 37.1349 93.0404 36.7637C93.0404 36.4426 92.9501 36.1817 92.7695 35.981C92.5889 35.7803 92.348 35.6097 92.047 35.4693C91.756 35.3288 91.4299 35.2034 91.0687 35.093C90.7175 34.9726 90.3613 34.8371 90.0001 34.6866C89.6489 34.5361 89.3228 34.3505 89.0217 34.1297C88.7308 33.8989 88.495 33.6079 88.3143 33.2567C88.1337 32.8955 88.0434 32.444 88.0434 31.9021C88.0434 31.26 88.199 30.7131 88.51 30.2616C88.8211 29.81 89.2475 29.4639 89.7894 29.223C90.3312 28.9822 90.9433 28.8618 91.6256 28.8618C92.348 28.8618 93.0003 28.9973 93.5822 29.2682C94.1642 29.5391 94.6408 29.8903 95.0121 30.3218L93.6575 31.6764C93.3464 31.3352 93.0253 31.0844 92.6942 30.9238C92.3731 30.7633 92.0069 30.683 91.5955 30.683C91.1239 30.683 90.7526 30.7733 90.4817 30.9539C90.2108 31.1345 90.0753 31.3954 90.0753 31.7366C90.0753 32.0276 90.1656 32.2634 90.3462 32.444C90.5269 32.6246 90.7627 32.7801 91.0536 32.9106C91.3547 33.041 91.6808 33.1664 92.032 33.2868C92.3932 33.4073 92.7494 33.5427 93.1006 33.6932C93.4618 33.8437 93.7879 34.0394 94.0789 34.2802C94.3799 34.521 94.6208 34.8321 94.8014 35.2134C94.982 35.5846 95.0723 36.0462 95.0723 36.5981C95.0723 37.5814 94.7261 38.3541 94.0338 38.916C93.3414 39.4779 92.3932 39.7588 91.1891 39.7588Z" fill="#52B7A0"/>
<path d="M83.3535 39.6083V29.0273H85.4005V39.6083H83.3535Z" fill="#52B7A0"/>
<path d="M77.1893 39.7588C76.4167 39.7588 75.6993 39.6234 75.037 39.3524C74.3748 39.0715 73.7928 38.6852 73.2911 38.1935C72.7994 37.6918 72.4181 37.1098 72.1472 36.4476C71.8863 35.7853 71.7559 35.0729 71.7559 34.3103C71.7559 33.5477 71.8863 32.8353 72.1472 32.1731C72.4181 31.5108 72.7994 30.9339 73.2911 30.4422C73.7928 29.9505 74.3697 29.5642 75.022 29.2832C75.6842 29.0023 76.4067 28.8618 77.1893 28.8618C78.0322 28.8618 78.7747 29.0023 79.4169 29.2832C80.0591 29.5542 80.626 29.9304 81.1177 30.4121L79.7329 31.7968C79.442 31.4757 79.0858 31.2248 78.6643 31.0442C78.2429 30.8636 77.7512 30.7733 77.1893 30.7733C76.6976 30.7733 76.2461 30.8586 75.8347 31.0292C75.4333 31.1897 75.0822 31.4305 74.7811 31.7516C74.4801 32.0627 74.2493 32.439 74.0888 32.8805C73.9282 33.3119 73.848 33.7885 73.848 34.3103C73.848 34.8421 73.9282 35.3238 74.0888 35.7552C74.2493 36.1867 74.4801 36.563 74.7811 36.8841C75.0822 37.1951 75.4333 37.4359 75.8347 37.6065C76.2461 37.7771 76.6976 37.8624 77.1893 37.8624C77.7813 37.8624 78.288 37.7721 78.7095 37.5915C79.1409 37.4108 79.5022 37.155 79.7932 36.8239L81.1779 38.2086C80.6862 38.7002 80.1142 39.0815 79.462 39.3524C78.8098 39.6234 78.0522 39.7588 77.1893 39.7588Z" fill="#52B7A0"/>
<path d="M65.943 39.7588C65.0901 39.7588 64.3576 39.6133 63.7456 39.3223C63.1435 39.0314 62.5967 38.5949 62.105 38.0129L63.4596 36.6583C63.7706 37.0697 64.1319 37.3908 64.5433 37.6216C64.9547 37.8423 65.4564 37.9527 66.0484 37.9527C66.5802 37.9527 67.0016 37.8473 67.3127 37.6366C67.6338 37.4259 67.7943 37.1349 67.7943 36.7637C67.7943 36.4426 67.704 36.1817 67.5234 35.981C67.3428 35.7803 67.102 35.6097 66.8009 35.4693C66.5099 35.3288 66.1838 35.2034 65.8226 35.093C65.4714 34.9726 65.1152 34.8371 64.754 34.6866C64.4028 34.5361 64.0767 34.3505 63.7757 34.1297C63.4847 33.8989 63.2489 33.6079 63.0683 33.2567C62.8876 32.8955 62.7973 32.444 62.7973 31.9021C62.7973 31.26 62.9529 30.7131 63.2639 30.2616C63.575 29.81 64.0014 29.4639 64.5433 29.223C65.0851 28.9822 65.6972 28.8618 66.3795 28.8618C67.102 28.8618 67.7542 28.9973 68.3361 29.2682C68.9181 29.5391 69.3947 29.8903 69.766 30.3218L68.4114 31.6764C68.1003 31.3352 67.7793 31.0844 67.4481 30.9238C67.127 30.7633 66.7608 30.683 66.3494 30.683C65.8778 30.683 65.5065 30.7733 65.2356 30.9539C64.9647 31.1345 64.8292 31.3954 64.8292 31.7366C64.8292 32.0276 64.9195 32.2634 65.1002 32.444C65.2808 32.6246 65.5166 32.7801 65.8076 32.9106C66.1086 33.041 66.4347 33.1664 66.7859 33.2868C67.1471 33.4073 67.5033 33.5427 67.8545 33.6932C68.2157 33.8437 68.5418 34.0394 68.8328 34.2802C69.1339 34.521 69.3747 34.8321 69.5553 35.2134C69.7359 35.5846 69.8262 36.0462 69.8262 36.5981C69.8262 37.5814 69.48 38.3541 68.7877 38.916C68.0953 39.4779 67.1471 39.7588 65.943 39.7588Z" fill="#52B7A0"/>
<path d="M103.43 21.7165V20.121H105.883C106.385 20.121 106.771 19.9956 107.042 19.7448C107.323 19.4839 107.464 19.1277 107.464 18.6761C107.464 18.2647 107.323 17.9236 107.042 17.6527C106.771 17.3717 106.385 17.2312 105.883 17.2312H103.43V15.5605H106.064C106.746 15.5605 107.343 15.696 107.855 15.9669C108.377 16.2278 108.778 16.589 109.059 17.0506C109.35 17.5122 109.496 18.044 109.496 18.646C109.496 19.2681 109.35 19.81 109.059 20.2715C108.778 20.7231 108.377 21.0793 107.855 21.3402C107.333 21.591 106.726 21.7165 106.034 21.7165H103.43ZM101.925 26.1415V15.5605H103.972V26.1415H101.925ZM107.704 26.1415L104.213 21.5659L106.094 20.9789L110.188 26.1415H107.704Z" fill="#B1AA9F"/>
<path d="M92.4189 26.1415V15.5605H94.4659V26.1415H92.4189ZM93.9241 26.1415V24.3353H99.7789V26.1415H93.9241ZM93.9241 21.6111V19.8652H99.2522V21.6111H93.9241ZM93.9241 17.3667V15.5605H99.7037V17.3667H93.9241Z" fill="#B1AA9F"/>
<path d="M84.301 22.2131V20.5425H86.7543C87.0754 20.5425 87.3664 20.4772 87.6273 20.3468C87.8882 20.2164 88.0939 20.0307 88.2444 19.7899C88.3949 19.5391 88.4702 19.238 88.4702 18.8868C88.4702 18.5457 88.3949 18.2497 88.2444 17.9988C88.0939 17.748 87.8882 17.5573 87.6273 17.4269C87.3664 17.2964 87.0754 17.2312 86.7543 17.2312H84.301V15.5605H86.9651C87.6373 15.5605 88.2394 15.696 88.7712 15.9669C89.313 16.2378 89.7395 16.6242 90.0505 17.1259C90.3616 17.6175 90.5171 18.2045 90.5171 18.8868C90.5171 19.5692 90.3616 20.1612 90.0505 20.6629C89.7395 21.1545 89.313 21.5358 88.7712 21.8068C88.2394 22.0777 87.6373 22.2131 86.9651 22.2131H84.301ZM82.7959 26.1415V15.5605H84.8428V26.1415H82.7959Z" fill="#B1AA9F"/>
<path d="M70.9199 26.1415L75.1794 15.5605H76.8501L81.0945 26.1415H78.9121L75.6309 17.457H76.3835L73.0572 26.1415H70.9199ZM73.1776 24.1698V22.454H78.8669V24.1698H73.1776Z" fill="#B1AA9F"/>
<path d="M64.3777 22.2131V20.5425H66.831C67.1521 20.5425 67.4431 20.4772 67.704 20.3468C67.9649 20.2164 68.1706 20.0307 68.3211 19.7899C68.4716 19.5391 68.5468 19.238 68.5468 18.8868C68.5468 18.5457 68.4716 18.2497 68.3211 17.9988C68.1706 17.748 67.9649 17.5573 67.704 17.4269C67.4431 17.2964 67.1521 17.2312 66.831 17.2312H64.3777V15.5605H67.0417C67.714 15.5605 68.316 15.696 68.8479 15.9669C69.3897 16.2378 69.8161 16.6242 70.1272 17.1259C70.4383 17.6175 70.5938 18.2045 70.5938 18.8868C70.5938 19.5692 70.4383 20.1612 70.1272 20.6629C69.8161 21.1545 69.3897 21.5358 68.8479 21.8068C68.316 22.0777 67.714 22.2131 67.0417 22.2131H64.3777ZM62.8726 26.1415V15.5605H64.9195V26.1415H62.8726Z" fill="#B1AA9F"/>
<path d="M102.446 12.6747L97.8554 7.15092L102.326 2.09375H104.884L99.9024 7.58741L99.9175 6.63919L105.05 12.6747H102.446ZM96.0493 12.6747V2.09375H98.0963V12.6747H96.0493Z" fill="#E12952"/>
<path d="M90.1864 12.8252C89.4138 12.8252 88.6963 12.6898 88.0341 12.4189C87.3718 12.1379 86.7898 11.7516 86.2881 11.2599C85.7965 10.7582 85.4152 10.1762 85.1443 9.51399C84.8834 8.85174 84.7529 8.13932 84.7529 7.37673C84.7529 6.61414 84.8834 5.90172 85.1443 5.23947C85.4152 4.57722 85.7965 4.00026 86.2881 3.50859C86.7898 3.01692 87.3668 2.63061 88.019 2.34965C88.6813 2.0687 89.4037 1.92822 90.1864 1.92822C91.0292 1.92822 91.7718 2.0687 92.4139 2.34965C93.0561 2.62057 93.6231 2.99685 94.1147 3.47849L92.73 4.86319C92.439 4.5421 92.0828 4.29125 91.6614 4.11064C91.24 3.93002 90.7483 3.83971 90.1864 3.83971C89.6947 3.83971 89.2432 3.925 88.8318 4.09558C88.4304 4.25613 88.0792 4.49695 87.7782 4.81804C87.4772 5.12909 87.2464 5.50537 87.0859 5.94687C86.9253 6.37834 86.845 6.85495 86.845 7.37673C86.845 7.90853 86.9253 8.39017 87.0859 8.82163C87.2464 9.2531 87.4772 9.62938 87.7782 9.95047C88.0792 10.2615 88.4304 10.5023 88.8318 10.6729C89.2432 10.8435 89.6947 10.9288 90.1864 10.9288C90.7784 10.9288 91.2851 10.8385 91.7065 10.6579C92.138 10.4773 92.4992 10.2214 92.7902 9.89026L94.1749 11.275C93.6833 11.7666 93.1113 12.1479 92.4591 12.4189C91.8069 12.6898 91.0493 12.8252 90.1864 12.8252Z" fill="#E12952"/>
<path d="M77.6099 12.8403C76.8372 12.8403 76.1148 12.6998 75.4425 12.4189C74.7803 12.1379 74.1983 11.7516 73.6966 11.2599C73.2049 10.7582 72.8186 10.1762 72.5376 9.51399C72.2567 8.8417 72.1162 8.12427 72.1162 7.36168C72.1162 6.59909 72.2517 5.89168 72.5226 5.23947C72.8035 4.57722 73.1899 4.00026 73.6815 3.50859C74.1832 3.00689 74.7652 2.62057 75.4275 2.34965C76.0897 2.0687 76.8071 1.92822 77.5798 1.92822C78.3624 1.92822 79.0849 2.0687 79.7471 2.34965C80.4094 2.62057 80.9863 3.00689 81.478 3.50859C81.9797 4.00026 82.371 4.57722 82.652 5.23947C82.9329 5.90172 83.0734 6.61414 83.0734 7.37673C83.0734 8.13932 82.9329 8.85174 82.652 9.51399C82.371 10.1762 81.9797 10.7582 81.478 11.2599C80.9863 11.7516 80.4094 12.1379 79.7471 12.4189C79.0949 12.6998 78.3825 12.8403 77.6099 12.8403ZM77.5798 10.9288C78.2621 10.9288 78.8541 10.7783 79.3558 10.4773C79.8575 10.1762 80.2488 9.75982 80.5298 9.22801C80.8208 8.69621 80.9663 8.0741 80.9663 7.36168C80.9663 6.8399 80.886 6.36329 80.7254 5.93182C80.5649 5.50035 80.3341 5.12909 80.0331 4.81804C79.7321 4.49695 79.3759 4.25111 78.9645 4.08053C78.5531 3.90995 78.0915 3.82466 77.5798 3.82466C76.9175 3.82466 76.3305 3.97517 75.8188 4.2762C75.3171 4.56718 74.9207 4.97858 74.6297 5.51039C74.3488 6.04219 74.2083 6.65929 74.2083 7.36168C74.2083 7.89348 74.2886 8.38013 74.4491 8.82163C74.6197 9.26313 74.8505 9.63941 75.1415 9.95047C75.4425 10.2615 75.7987 10.5023 76.2101 10.6729C76.6315 10.8435 77.0881 10.9288 77.5798 10.9288Z" fill="#E12952"/>
<path d="M64.3777 8.24966V6.65424H66.831C67.3327 6.65424 67.719 6.52881 67.9899 6.27796C68.2709 6.01707 68.4114 5.66086 68.4114 5.20933C68.4114 4.79793 68.2709 4.45678 67.9899 4.18585C67.719 3.9049 67.3327 3.76442 66.831 3.76442H64.3777V2.09375H67.0116C67.6939 2.09375 68.291 2.22921 68.8027 2.50013C69.3245 2.76102 69.7258 3.12224 70.0068 3.58381C70.2978 4.04538 70.4433 4.57718 70.4433 5.17923C70.4433 5.80134 70.2978 6.34318 70.0068 6.80475C69.7258 7.25628 69.3245 7.61249 68.8027 7.87338C68.2809 8.12423 67.6739 8.24966 66.9815 8.24966H64.3777ZM62.8726 12.6747V2.09375H64.9195V12.6747H62.8726ZM68.6522 12.6747L65.1603 8.09914L67.0417 7.51215L71.1356 12.6747H68.6522Z" fill="#E12952"/>
<path d="M174.013 60.8175C172.518 60.8175 171.392 60.3194 170.635 59.3231C169.898 58.3268 169.529 56.8224 169.529 54.8099V47.1286C169.529 45.0962 169.968 43.552 170.844 42.4959C171.741 41.4199 173.036 40.882 174.73 40.882C176.443 40.882 177.739 41.4498 178.615 42.5856C179.512 43.7014 179.881 45.2357 179.721 47.1884C179.721 47.3677 179.642 47.4574 179.482 47.4574H177.181C177.001 47.4574 176.932 47.3578 176.971 47.1585C177.091 45.9829 176.952 45.0763 176.553 44.4387C176.155 43.7811 175.557 43.4524 174.76 43.4524C173.923 43.4524 173.305 43.7612 172.907 44.3789C172.508 44.9767 172.309 45.9132 172.309 47.1884V54.5708C172.309 55.8859 172.478 56.8324 172.817 57.4102C173.176 57.9681 173.783 58.2471 174.64 58.2471C175.457 58.2471 176.075 57.9183 176.493 57.2608C176.912 56.6032 177.121 55.607 177.121 54.2719V52.8373H174.939C174.76 52.8373 174.67 52.7277 174.67 52.5085V50.8946C174.67 50.6953 174.76 50.5957 174.939 50.5957H179.572C179.731 50.5957 179.811 50.6953 179.811 50.8946V56.4538C179.811 57.3903 179.821 58.1475 179.841 58.7253C179.881 59.3032 179.93 59.8312 179.99 60.3094C180.03 60.5286 179.95 60.6382 179.751 60.6382H177.958C177.798 60.6382 177.709 60.5485 177.689 60.3692C177.649 60.1301 177.619 59.8511 177.599 59.5323C177.579 59.1936 177.559 58.7851 177.539 58.3069H177.509C177.211 59.084 176.772 59.7017 176.194 60.16C175.636 60.5983 174.909 60.8175 174.013 60.8175Z" fill="#291A14"/>
<path d="M155.853 60.6382C155.693 60.6382 155.614 60.5385 155.614 60.3393V41.3602C155.614 41.1609 155.693 41.0613 155.853 41.0613H158.991C159.151 41.0613 159.25 41.131 159.29 41.2705L162.159 51.6119C162.299 52.1299 162.448 52.7078 162.608 53.3454C162.767 53.9631 162.916 54.5907 163.056 55.2284C163.195 55.8461 163.315 56.404 163.415 56.9021H163.474C163.435 56.5036 163.405 56.0453 163.385 55.5272C163.365 55.0092 163.345 54.4812 163.325 53.9432C163.305 53.4052 163.285 52.8771 163.265 52.3591C163.265 51.841 163.265 51.3827 163.265 50.9842V41.3602C163.265 41.1609 163.345 41.0613 163.504 41.0613H165.626C165.806 41.0613 165.895 41.1609 165.895 41.3602V60.3393C165.895 60.5385 165.806 60.6382 165.626 60.6382H162.518C162.379 60.6382 162.289 60.5784 162.249 60.4588L159.41 50.3566C159.131 49.3802 158.892 48.4238 158.692 47.4873C158.493 46.5308 158.304 45.6541 158.124 44.8571H158.065C158.104 45.4349 158.134 46.1024 158.154 46.8596C158.174 47.5969 158.194 48.3441 158.214 49.1012C158.234 49.8584 158.244 50.5259 158.244 51.1038V60.3393C158.244 60.5385 158.164 60.6382 158.005 60.6382H155.853Z" fill="#291A14"/>
<path d="M149.17 60.6382C149.011 60.6382 148.931 60.5385 148.931 60.3393V41.3602C148.931 41.1609 149.011 41.0613 149.17 41.0613H151.442C151.621 41.0613 151.711 41.1609 151.711 41.3602V60.3393C151.711 60.5385 151.621 60.6382 151.442 60.6382H149.17Z" fill="#291A14"/>
<path d="M140.007 60.6382C139.827 60.6382 139.738 60.5385 139.738 60.3393V43.6317H136.629C136.45 43.6317 136.36 43.5221 136.36 43.3029V41.3602C136.36 41.1609 136.45 41.0613 136.629 41.0613H145.656C145.815 41.0613 145.895 41.1609 145.895 41.3602V43.3029C145.895 43.5221 145.815 43.6317 145.656 43.6317H142.517V60.3393C142.517 60.5385 142.428 60.6382 142.248 60.6382H140.007Z" fill="#291A14"/>
<path d="M128.45 60.6382C128.27 60.6382 128.181 60.5385 128.181 60.3393V41.3602C128.181 41.1609 128.27 41.0613 128.45 41.0613H130.691C130.871 41.0613 130.96 41.1609 130.96 41.3602V58.0678H135.742C135.922 58.0678 136.011 58.1773 136.011 58.3965V60.3393C136.011 60.5385 135.922 60.6382 135.742 60.6382H128.45Z" fill="#291A14"/>
<path d="M119.25 60.8175C117.517 60.8175 116.242 60.2895 115.425 59.2334C114.608 58.1574 114.199 56.5435 114.199 54.3915V41.3602C114.199 41.1609 114.279 41.0613 114.438 41.0613H116.71C116.869 41.0613 116.949 41.1609 116.949 41.3602V54.3317C116.949 55.7265 117.128 56.7327 117.487 57.3504C117.866 57.9482 118.453 58.2471 119.25 58.2471C120.067 58.2471 120.655 57.9482 121.014 57.3504C121.392 56.7327 121.582 55.7265 121.582 54.3317V41.3602C121.582 41.1609 121.661 41.0613 121.821 41.0613H124.092C124.252 41.0613 124.331 41.1609 124.331 41.3602V54.3915C124.331 56.5435 123.903 58.1574 123.046 59.2334C122.209 60.2895 120.944 60.8175 119.25 60.8175Z" fill="#291A14"/>
<path d="M106.181 60.8175C105.005 60.8175 104.068 60.5784 103.371 60.1002C102.674 59.622 102.185 58.9644 101.907 58.1275C101.647 57.2707 101.558 56.2745 101.638 55.1387C101.657 54.9195 101.747 54.8099 101.907 54.8099H104.118C104.298 54.8099 104.377 54.9195 104.357 55.1387C104.238 56.1748 104.347 56.9619 104.686 57.4999C105.025 58.0379 105.543 58.3069 106.24 58.3069C106.898 58.3069 107.386 58.1176 107.705 57.739C108.024 57.3405 108.183 56.7128 108.183 55.856C108.183 55.1387 108.073 54.531 107.854 54.0328C107.635 53.5148 107.266 53.0664 106.748 52.6879L104.268 50.7451C103.391 50.0676 102.743 49.3304 102.325 48.5334C101.907 47.7164 101.707 46.7202 101.727 45.5445C101.747 44.0501 102.136 42.9044 102.893 42.1074C103.65 41.2904 104.736 40.882 106.151 40.882C107.804 40.882 109.01 41.3701 109.767 42.3465C110.524 43.3228 110.823 44.6678 110.664 46.3814C110.664 46.6404 110.584 46.77 110.425 46.77H108.153C107.994 46.77 107.924 46.6404 107.944 46.3814C108.044 45.4648 107.944 44.7376 107.645 44.1996C107.346 43.6616 106.878 43.3926 106.24 43.3926C105.702 43.3926 105.274 43.5719 104.955 43.9306C104.656 44.2693 104.497 44.7973 104.477 45.5147C104.477 46.212 104.606 46.7999 104.865 47.2781C105.124 47.7563 105.503 48.1946 106.001 48.5932L108.422 50.4462C109.04 50.9244 109.528 51.4126 109.887 51.9108C110.265 52.4089 110.534 52.9768 110.694 53.6144C110.873 54.2321 110.963 54.9693 110.963 55.8261C110.963 57.4003 110.574 58.6257 109.797 59.5024C109.04 60.3791 107.834 60.8175 106.181 60.8175Z" fill="#291A14"/>
<path d="M88.2899 60.6382C88.1305 60.6382 88.0508 60.5385 88.0508 60.3393V41.3602C88.0508 41.1609 88.1305 41.0613 88.2899 41.0613H91.4282C91.5876 41.0613 91.6872 41.131 91.727 41.2705L94.5963 51.6119C94.7358 52.1299 94.8853 52.7078 95.0447 53.3454C95.2041 53.9631 95.3535 54.5907 95.493 55.2284C95.6325 55.8461 95.752 56.404 95.8516 56.9021H95.9114C95.8716 56.5036 95.8417 56.0453 95.8218 55.5272C95.8018 55.0092 95.7819 54.4812 95.762 53.9432C95.7421 53.4052 95.7221 52.8771 95.7022 52.3591C95.7022 51.841 95.7022 51.3827 95.7022 50.9842V41.3602C95.7022 41.1609 95.7819 41.0613 95.9413 41.0613H98.0634C98.2427 41.0613 98.3324 41.1609 98.3324 41.3602V60.3393C98.3324 60.5385 98.2427 60.6382 98.0634 60.6382H94.955C94.8155 60.6382 94.7258 60.5784 94.686 60.4588L91.8466 50.3566C91.5676 49.3802 91.3285 48.4238 91.1293 47.4873C90.93 46.5308 90.7407 45.6541 90.5614 44.8571H90.5016C90.5415 45.4349 90.5714 46.1024 90.5913 46.8596C90.6112 47.5969 90.6311 48.3441 90.6511 49.1012C90.671 49.8584 90.681 50.5259 90.681 51.1038V60.3393C90.681 60.5385 90.6013 60.6382 90.4418 60.6382H88.2899Z" fill="#291A14"/>
<path d="M79.1488 60.8175C77.4751 60.8175 76.1899 60.3194 75.2932 59.3231C74.3966 58.3268 73.9482 56.8324 73.9482 54.8398V46.9194C73.9482 44.887 74.3966 43.3727 75.2932 42.3764C76.1899 41.3801 77.4751 40.882 79.1488 40.882C80.8425 40.882 82.1377 41.3801 83.0343 42.3764C83.931 43.3727 84.3793 44.887 84.3793 46.9194V54.8398C84.3793 56.8324 83.931 58.3268 83.0343 59.3231C82.1377 60.3194 80.8425 60.8175 79.1488 60.8175ZM79.1488 58.2471C79.9658 58.2471 80.5735 57.9681 80.972 57.4102C81.3904 56.8523 81.5997 55.9457 81.5997 54.6904V47.039C81.5997 45.7637 81.3904 44.8471 80.972 44.2892C80.5735 43.7313 79.9658 43.4524 79.1488 43.4524C78.3518 43.4524 77.7441 43.7313 77.3256 44.2892C76.9271 44.8471 76.7279 45.7637 76.7279 47.039V54.6904C76.7279 55.9457 76.9271 56.8523 77.3256 57.4102C77.7441 57.9681 78.3518 58.2471 79.1488 58.2471Z" fill="#291A14"/>
<path d="M65.6068 60.8175C63.9132 60.8175 62.618 60.3094 61.7213 59.2932C60.8446 58.2571 60.4062 56.673 60.4062 54.5409V47.1585C60.4062 45.0663 60.8446 43.5022 61.7213 42.466C62.618 41.41 63.9132 40.882 65.6068 40.882C66.8223 40.882 67.8285 41.1609 68.6255 41.7188C69.4226 42.2568 69.9905 43.024 70.3292 44.0202C70.6878 45.0165 70.7875 46.2021 70.6281 47.577C70.5882 47.7762 70.5085 47.8758 70.389 47.8758H68.0876C67.8883 47.8758 67.8086 47.7563 67.8485 47.5172C67.9481 46.2021 67.8186 45.1958 67.4599 44.4984C67.1012 43.8011 66.4836 43.4524 65.6068 43.4524C64.7899 43.4524 64.1821 43.7512 63.7836 44.349C63.3851 44.9468 63.1859 45.9331 63.1859 47.308V54.3616C63.1859 55.7365 63.3851 56.7328 63.7836 57.3504C64.2021 57.9482 64.8098 58.2471 65.6068 58.2471C66.5633 58.2471 67.2009 57.8785 67.5197 57.1412C67.8584 56.404 67.9879 55.4077 67.9082 54.1524C67.8684 53.9332 67.9481 53.8236 68.1473 53.8236H70.3292C70.5085 53.8236 70.6181 53.9332 70.658 54.1524C70.7974 56.2446 70.4388 57.8785 69.582 59.0541C68.7451 60.2297 67.4201 60.8175 65.6068 60.8175Z" fill="#291A14"/>
<g clip-path="url(#clip0_32_697)">
<path d="M28.914 0.207275C28.914 0.207275 27.2711 2.30346 26.6139 2.65283C26.407 2.76338 26.07 2.8043 25.6742 2.85208C24.8132 2.95443 23.6751 3.09226 22.9998 4.05029C22.0141 5.44775 2.95712 36.5412 2.29998 38.6373C1.64284 40.7336 0 60.9966 0 60.9966H57.828C57.828 60.9966 56.1851 40.7336 55.5279 38.6373C54.8709 36.5412 35.814 5.44775 34.8283 4.05029C34.1529 3.09226 33.0148 2.95443 32.1538 2.85208C31.758 2.8043 31.421 2.76338 31.2141 2.65283C30.5569 2.30346 28.914 0.207275 28.914 0.207275Z" fill="#291B14"/>
<path d="M25.2996 11.7363L29.2423 5.44775L32.5281 11.7363L37.4565 9.98947L36.7995 19.4223C36.1423 19.073 34.4338 18.3742 32.8566 18.3742C31.2796 18.3742 29.79 19.073 29.2423 19.4223C28.8044 19.073 27.5338 18.3742 25.9568 18.3742C24.3796 18.3742 22.233 19.073 21.3568 19.4223L20.3711 9.98947L25.2996 11.7363Z" fill="#52B7A0"/>
<path fill-rule="evenodd" clip-rule="evenodd" d="M13.7998 60.9968C13.7999 48.7691 14.3256 43.5286 17.7427 43.5286C25.9206 43.5286 25.9566 43.1823 26.2811 40.0766L26.2853 40.035H28.9139H29.2426H31.8709L31.8755 40.0766C32.1997 43.1823 32.2359 43.5286 40.4138 43.5286C43.8309 43.5286 44.3566 48.7691 44.3566 60.9968H29.2426H28.9139H13.7998Z" fill="#B0ABA1"/>
<path d="M38.7712 30.2529C38.7712 37.5895 34.2092 42.83 29.2426 42.83C24.2763 42.83 19.0571 37.5895 19.0571 30.2529C19.0571 24.0785 24.2763 20.4707 29.2426 20.4707C34.2092 20.4707 38.7712 24.0785 38.7712 30.2529Z" fill="#C23657"/>
</g>
<defs>
<clipPath id="clip0_32_697">
<rect width="57.828" height="60.9966" fill="white"/>
</clipPath>
</defs>
</svg>
