<svg width="169" height="171" viewBox="0 0 169 171" fill="none" xmlns="http://www.w3.org/2000/svg">
<g clip-path="url(#clip0_477_1408)">
<path d="M84.5 0.458008C84.5 0.458008 80.8817 5.0874 79.4342 5.85897C78.9785 6.10312 78.2363 6.1935 77.3646 6.29902C75.4682 6.52505 72.9617 6.82946 71.4743 8.94524C69.3034 12.0315 27.3317 80.7009 25.8844 85.3301C24.4371 89.9599 20.8188 134.71 20.8188 134.71H148.181C148.181 134.71 144.563 89.9599 143.115 85.3301C141.668 80.7009 99.6968 12.0315 97.5259 8.94524C96.0383 6.82946 93.5318 6.52505 91.6354 6.29902C90.7637 6.1935 90.0215 6.10312 89.5658 5.85897C88.1183 5.0874 84.5 0.458008 84.5 0.458008Z" fill="#291B14"/>
<path d="M76.5398 25.9199L85.2234 12.0317L92.4601 25.9199L103.315 22.0621L101.868 42.8944C100.42 42.1228 96.6573 40.5797 93.1835 40.5797C89.7103 40.5797 86.4297 42.1228 85.2234 42.8944C84.2588 42.1228 81.4605 40.5797 77.9872 40.5797C74.5135 40.5797 69.7857 42.1228 67.856 42.8944L65.6851 22.0621L76.5398 25.9199Z" fill="#52B7A0"/>
<path fill-rule="evenodd" clip-rule="evenodd" d="M51.2124 134.711C51.2125 107.706 52.3704 96.1325 59.8963 96.1325C77.9076 96.1325 77.987 95.3676 78.7016 88.5089L78.711 88.417H84.5002H85.2242H91.0129L91.0228 88.5089C91.7369 95.3676 91.8168 96.1325 109.828 96.1325C117.354 96.1325 118.512 107.706 118.512 134.711H85.2242H84.5002H51.2124Z" fill="#B0ABA1"/>
<path d="M106.209 66.8133C106.209 83.0161 96.162 94.5897 85.2234 94.5897C74.2854 94.5897 62.7905 83.0161 62.7905 66.8133C62.7905 53.1773 74.2854 45.2095 85.2234 45.2095C96.162 45.2095 106.209 53.1773 106.209 66.8133Z" fill="#C23657"/>
</g>
<path d="M86.3339 144.797V143.135H88.8895C89.4121 143.135 89.8145 143.005 90.0967 142.743C90.3893 142.472 90.5357 142.1 90.5357 141.63C90.5357 141.202 90.3893 140.846 90.0967 140.564C89.8145 140.271 89.4121 140.125 88.8895 140.125H86.3339V138.385H89.0776C89.7883 138.385 90.4102 138.526 90.9433 138.808C91.4868 139.08 91.9049 139.456 92.1976 139.937C92.5007 140.418 92.6522 140.972 92.6522 141.599C92.6522 142.247 92.5007 142.811 92.1976 143.292C91.9049 143.762 91.4868 144.133 90.9433 144.405C90.3998 144.666 89.7674 144.797 89.0462 144.797H86.3339ZM84.7661 149.407V138.385H86.8983V149.407H84.7661ZM90.7865 149.407L87.1492 144.64L89.109 144.029L93.3734 149.407H90.7865Z" fill="#AAA398"/>
<path d="M74.8638 149.407V138.385H76.996V149.407H74.8638ZM76.4316 149.407V147.525H82.5304V149.407H76.4316ZM76.4316 144.687V142.869H81.9816V144.687H76.4316ZM76.4316 140.266V138.385H82.452V140.266H76.4316Z" fill="#AAA398"/>
<path d="M66.4077 145.315V143.574H68.9632C69.2977 143.574 69.6008 143.506 69.8725 143.37C70.1443 143.235 70.3586 143.041 70.5153 142.79C70.6721 142.529 70.7505 142.215 70.7505 141.85C70.7505 141.494 70.6721 141.186 70.5153 140.925C70.3586 140.663 70.1443 140.465 69.8725 140.329C69.6008 140.193 69.2977 140.125 68.9632 140.125H66.4077V138.385H69.1827C69.883 138.385 70.5101 138.526 71.0641 138.808C71.6285 139.09 72.0727 139.493 72.3967 140.015C72.7207 140.527 72.8827 141.139 72.8827 141.85C72.8827 142.56 72.7207 143.177 72.3967 143.7C72.0727 144.212 71.6285 144.609 71.0641 144.891C70.5101 145.173 69.883 145.315 69.1827 145.315H66.4077ZM64.8398 149.407V138.385H66.9721V149.407H64.8398Z" fill="#AAA398"/>
<path d="M52.4692 149.407L56.9062 138.385H58.6464L63.0677 149.407H60.7943L57.3765 140.36H58.1604L54.6955 149.407H52.4692ZM54.821 147.353V145.565H60.7473V147.353H54.821Z" fill="#AAA398"/>
<path d="M45.6547 145.315V143.574H48.2103C48.5447 143.574 48.8478 143.506 49.1196 143.37C49.3914 143.235 49.6056 143.041 49.7624 142.79C49.9192 142.529 49.9976 142.215 49.9976 141.85C49.9976 141.494 49.9192 141.186 49.7624 140.925C49.6056 140.663 49.3914 140.465 49.1196 140.329C48.8478 140.193 48.5447 140.125 48.2103 140.125H45.6547V138.385H48.4298C49.1301 138.385 49.7572 138.526 50.3111 138.808C50.8756 139.09 51.3198 139.493 51.6438 140.015C51.9678 140.527 52.1298 141.139 52.1298 141.85C52.1298 142.56 51.9678 143.177 51.6438 143.7C51.3198 144.212 50.8756 144.609 50.3111 144.891C49.7572 145.173 49.1301 145.315 48.4298 145.315H45.6547ZM44.0869 149.407V138.385H46.2191V149.407H44.0869Z" fill="#AAA398"/>
<path d="M165.304 149.407C164.493 149.407 163.796 149.259 163.213 148.965C162.64 148.671 162.12 148.229 161.652 147.641L162.941 146.27C163.237 146.687 163.581 147.011 163.972 147.245C164.364 147.468 164.841 147.58 165.405 147.58C165.911 147.58 166.312 147.473 166.608 147.26C166.913 147.047 167.066 146.753 167.066 146.377C167.066 146.052 166.98 145.788 166.808 145.585C166.636 145.382 166.407 145.21 166.121 145.068C165.844 144.926 165.533 144.799 165.19 144.687C164.855 144.565 164.517 144.428 164.173 144.276C163.839 144.124 163.528 143.936 163.242 143.713C162.965 143.48 162.74 143.185 162.569 142.83C162.397 142.465 162.311 142.008 162.311 141.46C162.311 140.81 162.459 140.257 162.755 139.801C163.051 139.344 163.457 138.994 163.972 138.75C164.488 138.507 165.07 138.385 165.72 138.385C166.407 138.385 167.028 138.522 167.582 138.796C168.136 139.07 168.589 139.425 168.942 139.861L167.653 141.232C167.357 140.886 167.052 140.633 166.737 140.47C166.431 140.308 166.083 140.227 165.691 140.227C165.242 140.227 164.889 140.318 164.631 140.501C164.373 140.684 164.244 140.947 164.244 141.292C164.244 141.587 164.33 141.825 164.502 142.008C164.674 142.191 164.898 142.348 165.175 142.48C165.462 142.612 165.772 142.739 166.106 142.86C166.45 142.982 166.789 143.119 167.123 143.271C167.467 143.424 167.777 143.622 168.054 143.865C168.341 144.109 168.57 144.423 168.742 144.809C168.914 145.185 169 145.651 169 146.21C169 147.204 168.67 147.986 168.011 148.554C167.353 149.122 166.45 149.407 165.304 149.407Z" fill="#52B7A0"/>
<path d="M153.416 144.797V143.135H155.962C156.482 143.135 156.883 143.005 157.164 142.743C157.455 142.472 157.601 142.1 157.601 141.63C157.601 141.202 157.455 140.846 157.164 140.564C156.883 140.271 156.482 140.125 155.962 140.125H153.416V138.385H156.149C156.857 138.385 157.476 138.526 158.007 138.808C158.548 139.08 158.965 139.456 159.256 139.937C159.558 140.418 159.709 140.972 159.709 141.599C159.709 142.247 159.558 142.811 159.256 143.292C158.965 143.762 158.548 144.133 158.007 144.405C157.466 144.666 156.836 144.797 156.118 144.797H153.416ZM151.855 149.407V138.385H153.979V149.407H151.855ZM157.851 149.407L154.228 144.64L156.18 144.029L160.427 149.407H157.851Z" fill="#52B7A0"/>
<path d="M144.52 149.407C143.83 149.407 143.184 149.265 142.583 148.981C141.99 148.697 141.47 148.307 141.021 147.81C140.582 147.304 140.236 146.716 139.985 146.047C139.734 145.368 139.608 144.643 139.608 143.873C139.608 143.103 139.73 142.388 139.972 141.729C140.223 141.06 140.568 140.478 141.008 139.981C141.457 139.474 141.977 139.084 142.569 138.81C143.161 138.527 143.803 138.385 144.493 138.385C145.193 138.385 145.839 138.527 146.431 138.81C147.024 139.084 147.539 139.474 147.979 139.981C148.428 140.478 148.777 141.06 149.029 141.729C149.28 142.398 149.405 143.118 149.405 143.888C149.405 144.658 149.28 145.378 149.029 146.047C148.777 146.716 148.428 147.304 147.979 147.81C147.539 148.307 147.024 148.697 146.431 148.981C145.848 149.265 145.211 149.407 144.52 149.407ZM144.493 147.476C145.104 147.476 145.633 147.324 146.081 147.02C146.53 146.716 146.88 146.295 147.131 145.758C147.391 145.221 147.521 144.592 147.521 143.873C147.521 143.346 147.45 142.864 147.306 142.429C147.163 141.993 146.956 141.618 146.687 141.304C146.418 140.979 146.099 140.731 145.732 140.559C145.364 140.386 144.951 140.3 144.493 140.3C143.901 140.3 143.377 140.452 142.919 140.756C142.47 141.05 142.116 141.466 141.856 142.003C141.605 142.54 141.479 143.163 141.479 143.873C141.479 144.41 141.551 144.902 141.694 145.347C141.847 145.793 142.053 146.173 142.313 146.488C142.583 146.802 142.901 147.045 143.269 147.217C143.646 147.39 144.054 147.476 144.493 147.476Z" fill="#52B7A0"/>
<path d="M133.464 149.407C132.652 149.407 131.955 149.259 131.373 148.965C130.8 148.671 130.279 148.229 129.812 147.641L131.101 146.27C131.397 146.687 131.74 147.011 132.132 147.245C132.523 147.468 133.001 147.58 133.564 147.58C134.07 147.58 134.471 147.473 134.767 147.26C135.073 147.047 135.226 146.753 135.226 146.377C135.226 146.052 135.14 145.788 134.968 145.585C134.796 145.382 134.567 145.21 134.28 145.068C134.003 144.926 133.693 144.799 133.349 144.687C133.015 144.565 132.676 144.428 132.332 144.276C131.998 144.124 131.688 143.936 131.401 143.713C131.124 143.48 130.9 143.185 130.728 142.83C130.556 142.465 130.47 142.008 130.47 141.46C130.47 140.81 130.618 140.257 130.914 139.801C131.21 139.344 131.616 138.994 132.132 138.75C132.648 138.507 133.23 138.385 133.879 138.385C134.567 138.385 135.188 138.522 135.741 138.796C136.295 139.07 136.749 139.425 137.102 139.861L135.813 141.232C135.517 140.886 135.211 140.633 134.896 140.47C134.591 140.308 134.242 140.227 133.851 140.227C133.402 140.227 133.049 140.318 132.791 140.501C132.533 140.684 132.404 140.947 132.404 141.292C132.404 141.587 132.49 141.825 132.662 142.008C132.834 142.191 133.058 142.348 133.335 142.48C133.622 142.612 133.932 142.739 134.266 142.86C134.61 142.982 134.949 143.119 135.283 143.271C135.627 143.424 135.937 143.622 136.214 143.865C136.5 144.109 136.73 144.423 136.902 144.809C137.073 145.185 137.159 145.651 137.159 146.21C137.159 147.204 136.83 147.986 136.171 148.554C135.512 149.122 134.61 149.407 133.464 149.407Z" fill="#52B7A0"/>
<path d="M124.275 149.407C123.328 149.407 122.515 149.259 121.836 148.965C121.167 148.671 120.56 148.229 120.014 147.641L121.518 146.27C121.863 146.687 122.265 147.011 122.721 147.245C123.178 147.468 123.735 147.58 124.392 147.58C124.983 147.58 125.451 147.473 125.796 147.26C126.152 147.047 126.331 146.753 126.331 146.377C126.331 146.052 126.23 145.788 126.03 145.585C125.829 145.382 125.562 145.21 125.228 145.068C124.905 144.926 124.543 144.799 124.142 144.687C123.752 144.565 123.356 144.428 122.955 144.276C122.565 144.124 122.203 143.936 121.869 143.713C121.546 143.48 121.284 143.185 121.084 142.83C120.883 142.465 120.783 142.008 120.783 141.46C120.783 140.81 120.956 140.257 121.301 139.801C121.646 139.344 122.12 138.994 122.721 138.75C123.323 138.507 124.002 138.385 124.76 138.385C125.562 138.385 126.286 138.522 126.932 138.796C127.578 139.07 128.108 139.425 128.52 139.861L127.016 141.232C126.67 140.886 126.314 140.633 125.946 140.47C125.59 140.308 125.183 140.227 124.727 140.227C124.203 140.227 123.791 140.318 123.49 140.501C123.189 140.684 123.039 140.947 123.039 141.292C123.039 141.587 123.139 141.825 123.34 142.008C123.54 142.191 123.802 142.348 124.125 142.48C124.459 142.612 124.821 142.739 125.211 142.86C125.612 142.982 126.008 143.119 126.398 143.271C126.799 143.424 127.161 143.622 127.484 143.865C127.818 144.109 128.085 144.423 128.286 144.809C128.486 145.185 128.587 145.651 128.587 146.21C128.587 147.204 128.202 147.986 127.434 148.554C126.665 149.122 125.612 149.407 124.275 149.407Z" fill="#52B7A0"/>
<path d="M116.34 149.407V138.385H118.79V149.407H116.34Z" fill="#52B7A0"/>
<path d="M110.262 149.407C109.559 149.407 108.906 149.269 108.304 148.995C107.701 148.711 107.172 148.321 106.715 147.823C106.268 147.316 105.921 146.727 105.674 146.057C105.437 145.388 105.318 144.667 105.318 143.896C105.318 143.124 105.437 142.404 105.674 141.734C105.921 141.064 106.268 140.481 106.715 139.983C107.172 139.486 107.697 139.095 108.29 138.811C108.893 138.527 109.55 138.385 110.262 138.385C111.029 138.385 111.704 138.527 112.289 138.811C112.873 139.085 113.389 139.466 113.836 139.953L112.576 141.353C112.311 141.029 111.987 140.775 111.604 140.592C111.22 140.409 110.773 140.318 110.262 140.318C109.815 140.318 109.404 140.404 109.029 140.577C108.664 140.739 108.345 140.983 108.071 141.308C107.797 141.622 107.587 142.003 107.441 142.449C107.295 142.886 107.222 143.368 107.222 143.896C107.222 144.434 107.295 144.921 107.441 145.357C107.587 145.793 107.797 146.174 108.071 146.499C108.345 146.813 108.664 147.057 109.029 147.23C109.404 147.402 109.815 147.488 110.262 147.488C110.801 147.488 111.262 147.397 111.645 147.214C112.038 147.032 112.366 146.773 112.631 146.438L113.891 147.838C113.443 148.336 112.923 148.721 112.33 148.995C111.736 149.269 111.047 149.407 110.262 149.407Z" fill="#52B7A0"/>
<path d="M99.1739 149.407C98.3623 149.407 97.6652 149.259 97.0827 148.965C96.5098 148.671 95.9894 148.229 95.5215 147.641L96.8106 146.27C97.1066 146.687 97.4503 147.011 97.8419 147.245C98.2334 147.468 98.7108 147.58 99.2742 147.58C99.7803 147.58 100.181 147.473 100.477 147.26C100.783 147.047 100.936 146.753 100.936 146.377C100.936 146.052 100.85 145.788 100.678 145.585C100.506 145.382 100.277 145.21 99.9903 145.068C99.7134 144.926 99.4031 144.799 99.0593 144.687C98.7251 144.565 98.3861 144.428 98.0424 144.276C97.7082 144.124 97.3978 143.936 97.1114 143.713C96.8344 143.48 96.6101 143.185 96.4382 142.83C96.2663 142.465 96.1804 142.008 96.1804 141.46C96.1804 140.81 96.3284 140.257 96.6244 139.801C96.9204 139.344 97.3262 138.994 97.8419 138.75C98.3575 138.507 98.94 138.385 99.5893 138.385C100.277 138.385 100.897 138.522 101.451 138.796C102.005 139.07 102.459 139.425 102.812 139.861L101.523 141.232C101.227 140.886 100.921 140.633 100.606 140.47C100.301 140.308 99.9521 140.227 99.5606 140.227C99.1118 140.227 98.7585 140.318 98.5007 140.501C98.2429 140.684 98.114 140.947 98.114 141.292C98.114 141.587 98.1999 141.825 98.3718 142.008C98.5437 142.191 98.7681 142.348 99.045 142.48C99.3315 142.612 99.6418 142.739 99.976 142.86C100.32 142.982 100.659 143.119 100.993 143.271C101.337 143.424 101.647 143.622 101.924 143.865C102.21 144.109 102.44 144.423 102.611 144.809C102.783 145.185 102.869 145.651 102.869 146.21C102.869 147.204 102.54 147.986 101.881 148.554C101.222 149.122 100.32 149.407 99.1739 149.407Z" fill="#52B7A0"/>
<path d="M39.1579 149.407L34.7857 143.653L39.0432 138.385H41.4802L36.7352 144.107L36.7496 143.12L41.6379 149.407H39.1579ZM33.0654 149.407V138.385H35.015V149.407H33.0654Z" fill="#E12952"/>
<path d="M26.987 149.407C26.284 149.407 25.6313 149.269 25.0288 148.995C24.4262 148.711 23.8967 148.321 23.4402 147.823C22.9929 147.316 22.646 146.727 22.3995 146.057C22.1621 145.388 22.0435 144.667 22.0435 143.896C22.0435 143.124 22.1621 142.404 22.3995 141.734C22.646 141.064 22.9929 140.481 23.4402 139.983C23.8967 139.486 24.4217 139.095 25.0151 138.811C25.6176 138.527 26.2749 138.385 26.987 138.385C27.7539 138.385 28.4294 138.527 29.0137 138.811C29.598 139.085 30.1138 139.466 30.5611 139.953L29.3013 141.353C29.0365 141.029 28.7125 140.775 28.329 140.592C27.9456 140.409 27.4982 140.318 26.987 140.318C26.5397 140.318 26.1288 140.404 25.7545 140.577C25.3894 140.739 25.0698 140.983 24.796 141.308C24.5221 141.622 24.3121 142.003 24.166 142.449C24.02 142.886 23.9469 143.368 23.9469 143.896C23.9469 144.434 24.02 144.921 24.166 145.357C24.3121 145.793 24.5221 146.174 24.796 146.499C25.0698 146.813 25.3894 147.057 25.7545 147.23C26.1288 147.402 26.5397 147.488 26.987 147.488C27.5256 147.488 27.9867 147.397 28.3701 147.214C28.7627 147.032 29.0913 146.773 29.3561 146.438L30.6159 147.838C30.1686 148.336 29.6482 148.721 29.0548 148.995C28.4614 149.269 27.7721 149.407 26.987 149.407Z" fill="#E12952"/>
<path d="M15.3229 149.407C14.5457 149.407 13.819 149.265 13.1428 148.981C12.4766 148.697 11.8912 148.307 11.3865 147.81C10.892 147.304 10.5034 146.716 10.2208 146.047C9.93818 145.368 9.79688 144.643 9.79688 143.873C9.79688 143.103 9.93313 142.388 10.2056 141.729C10.4883 141.06 10.8768 140.478 11.3714 139.981C11.8761 139.474 12.4615 139.084 13.1276 138.81C13.7938 138.527 14.5154 138.385 15.2926 138.385C16.0799 138.385 16.8066 138.527 17.4727 138.81C18.1389 139.084 18.7192 139.474 19.2138 139.981C19.7185 140.478 20.1121 141.06 20.3947 141.729C20.6773 142.398 20.8186 143.118 20.8186 143.888C20.8186 144.658 20.6773 145.378 20.3947 146.047C20.1121 146.716 19.7185 147.304 19.2138 147.81C18.7192 148.307 18.1389 148.697 17.4727 148.981C16.8167 149.265 16.1001 149.407 15.3229 149.407ZM15.2926 147.476C15.9789 147.476 16.5744 147.324 17.0791 147.02C17.5838 146.716 17.9774 146.295 18.26 145.758C18.5527 145.221 18.699 144.592 18.699 143.873C18.699 143.346 18.6183 142.864 18.4568 142.429C18.2953 141.993 18.0632 141.618 17.7604 141.304C17.4576 140.979 17.0993 140.731 16.6855 140.559C16.2716 140.386 15.8074 140.3 15.2926 140.3C14.6265 140.3 14.036 140.452 13.5213 140.756C13.0166 141.05 12.6179 141.466 12.3252 142.003C12.0426 142.54 11.9013 143.163 11.9013 143.873C11.9013 144.41 11.982 144.902 12.1435 145.347C12.3151 145.793 12.5473 146.173 12.84 146.488C13.1428 146.802 13.5011 147.045 13.9149 147.217C14.3388 147.39 14.798 147.476 15.2926 147.476Z" fill="#E12952"/>
<path d="M1.56147 144.797V143.135H4.10666C4.62715 143.135 5.02793 143.005 5.30899 142.743C5.60047 142.472 5.74621 142.1 5.74621 141.63C5.74621 141.202 5.60047 140.846 5.30899 140.564C5.02793 140.271 4.62715 140.125 4.10666 140.125H1.56147V138.385H4.29404C5.00191 138.385 5.62129 138.526 6.15219 138.808C6.6935 139.08 7.10989 139.456 7.40136 139.937C7.70325 140.418 7.85419 140.972 7.85419 141.599C7.85419 142.247 7.70325 142.811 7.40136 143.292C7.10989 143.762 6.6935 144.133 6.15219 144.405C5.61088 144.666 4.98109 144.797 4.26281 144.797H1.56147ZM0 149.407V138.385H2.1236V149.407H0ZM5.99604 149.407L2.37343 144.64L4.32527 144.029L8.57246 149.407H5.99604Z" fill="#E12952"/>
<path d="M136.665 170.469C136.486 170.469 136.396 170.369 136.396 170.169V151.164C136.396 150.965 136.476 150.865 136.635 150.865H144.268C144.427 150.865 144.507 150.965 144.507 151.164V153.109C144.507 153.329 144.427 153.439 144.268 153.439H139.179V159.275H143.819C143.978 159.275 144.058 159.385 144.058 159.604V161.43C144.058 161.63 143.978 161.729 143.819 161.729H139.179V167.895H144.268C144.427 167.895 144.507 168.005 144.507 168.224V170.169C144.507 170.369 144.427 170.469 144.268 170.469H136.665Z" fill="#291A14"/>
<path d="M126.267 170.469C126.127 170.469 126.037 170.389 125.997 170.229L122.166 151.224C122.146 150.984 122.216 150.865 122.376 150.865H124.83C124.99 150.865 125.09 150.935 125.129 151.074L127.225 163.316C127.344 163.994 127.454 164.692 127.554 165.411C127.654 166.109 127.743 166.827 127.823 167.566H127.883C127.963 166.827 128.053 166.109 128.152 165.411C128.272 164.692 128.392 163.994 128.512 163.316L130.577 151.104C130.597 150.945 130.686 150.865 130.846 150.865H133.33C133.49 150.865 133.56 150.974 133.54 151.194L129.739 170.229C129.679 170.389 129.589 170.469 129.469 170.469H126.267Z" fill="#291A14"/>
<path d="M114.726 170.469C114.567 170.469 114.487 170.369 114.487 170.169V151.164C114.487 150.965 114.567 150.865 114.726 150.865H117.001C117.181 150.865 117.27 150.965 117.27 151.164V170.169C117.27 170.369 117.181 170.469 117.001 170.469H114.726Z" fill="#291A14"/>
<path d="M103.754 170.469C103.574 170.469 103.485 170.369 103.485 170.169V153.439H100.372C100.192 153.439 100.103 153.329 100.103 153.109V151.164C100.103 150.965 100.192 150.865 100.372 150.865H109.411C109.57 150.865 109.65 150.965 109.65 151.164V153.109C109.65 153.329 109.57 153.439 109.411 153.439H106.268V170.169C106.268 170.369 106.178 170.469 105.999 170.469H103.754Z" fill="#291A14"/>
<path d="M91.1521 170.649C89.4561 170.649 88.1591 170.14 87.2613 169.122C86.3833 168.085 85.9443 166.498 85.9443 164.363V156.971C85.9443 154.876 86.3833 153.309 87.2613 152.272C88.1591 151.214 89.4561 150.686 91.1521 150.686C92.3693 150.686 93.3769 150.965 94.175 151.524C94.9732 152.062 95.5418 152.831 95.881 153.828C96.2402 154.826 96.34 156.013 96.1803 157.39C96.1404 157.589 96.0606 157.689 95.9409 157.689H93.6363C93.4368 157.689 93.357 157.569 93.3969 157.33C93.4966 156.013 93.3669 155.005 93.0078 154.307C92.6486 153.609 92.0301 153.26 91.1521 153.26C90.334 153.26 89.7255 153.559 89.3264 154.157C88.9273 154.756 88.7278 155.744 88.7278 157.12V164.184C88.7278 165.561 88.9273 166.558 89.3264 167.177C89.7454 167.775 90.354 168.075 91.1521 168.075C92.1099 168.075 92.7484 167.706 93.0676 166.967C93.4068 166.229 93.5365 165.231 93.4567 163.974C93.4168 163.755 93.4966 163.645 93.6962 163.645H95.881C96.0606 163.645 96.1704 163.755 96.2103 163.974C96.3499 166.069 95.9908 167.706 95.1328 168.883C94.2948 170.06 92.9679 170.649 91.1521 170.649Z" fill="#291A14"/>
<path d="M75.056 170.469C74.8764 170.469 74.7866 170.369 74.7866 170.169V151.164C74.7866 150.965 74.8664 150.865 75.0261 150.865H82.6582C82.8178 150.865 82.8976 150.965 82.8976 151.164V153.109C82.8976 153.329 82.8178 153.439 82.6582 153.439H77.5701V159.275H82.2092C82.3688 159.275 82.4487 159.385 82.4487 159.604V161.43C82.4487 161.63 82.3688 161.729 82.2092 161.729H77.5701V167.895H82.6582C82.8178 167.895 82.8976 168.005 82.8976 168.224V170.169C82.8976 170.369 82.8178 170.469 82.6582 170.469H75.056Z" fill="#291A14"/>
<path d="M64.2132 170.469C64.0336 170.469 63.9438 170.369 63.9438 170.169V151.164C63.9438 150.965 64.0336 150.865 64.2132 150.865H66.458C66.6375 150.865 66.7273 150.965 66.7273 151.164V167.895H71.5161C71.6957 167.895 71.7855 168.005 71.7855 168.224V170.169C71.7855 170.369 71.6957 170.469 71.5161 170.469H64.2132Z" fill="#291A14"/>
<path d="M53.3709 170.469C53.1914 170.469 53.1016 170.369 53.1016 170.169V151.164C53.1016 150.965 53.1914 150.865 53.3709 150.865H55.6157C55.7952 150.865 55.885 150.965 55.885 151.164V167.895H60.6738C60.8534 167.895 60.9432 168.005 60.9432 168.224V170.169C60.9432 170.369 60.8534 170.469 60.6738 170.469H53.3709Z" fill="#291A14"/>
<path d="M44.4861 170.649C42.81 170.649 41.5231 170.15 40.6252 169.152C39.7273 168.155 39.2783 166.658 39.2783 164.663V156.731C39.2783 154.696 39.7273 153.18 40.6252 152.182C41.5231 151.184 42.81 150.686 44.4861 150.686C46.1821 150.686 47.4791 151.184 48.377 152.182C49.2749 153.18 49.7238 154.696 49.7238 156.731V164.663C49.7238 166.658 49.2749 168.155 48.377 169.152C47.4791 170.15 46.1821 170.649 44.4861 170.649ZM44.4861 168.075C45.3042 168.075 45.9128 167.795 46.3118 167.237C46.7308 166.678 46.9404 165.77 46.9404 164.513V156.851C46.9404 155.574 46.7308 154.656 46.3118 154.098C45.9128 153.539 45.3042 153.26 44.4861 153.26C43.688 153.26 43.0794 153.539 42.6604 154.098C42.2613 154.656 42.0618 155.574 42.0618 156.851V164.513C42.0618 165.77 42.2613 166.678 42.6604 167.237C43.0794 167.795 43.688 168.075 44.4861 168.075Z" fill="#291A14"/>
<path d="M30.9251 170.649C29.2291 170.649 27.9321 170.14 27.0342 169.122C26.1563 168.085 25.7173 166.498 25.7173 164.363V156.971C25.7173 154.876 26.1563 153.309 27.0342 152.272C27.9321 151.214 29.2291 150.686 30.9251 150.686C32.1422 150.686 33.1499 150.965 33.948 151.524C34.7461 152.062 35.3148 152.831 35.654 153.828C36.0131 154.826 36.1129 156.013 35.9533 157.39C35.9134 157.589 35.8336 157.689 35.7138 157.689H33.4093C33.2097 157.689 33.1299 157.569 33.1698 157.33C33.2696 156.013 33.1399 155.005 32.7807 154.307C32.4216 153.609 31.803 153.26 30.9251 153.26C30.107 153.26 29.4984 153.559 29.0994 154.157C28.7003 154.756 28.5008 155.744 28.5008 157.12V164.184C28.5008 165.561 28.7003 166.558 29.0994 167.177C29.5184 167.775 30.1269 168.075 30.9251 168.075C31.8828 168.075 32.5213 167.706 32.8406 166.967C33.1798 166.229 33.3095 165.231 33.2297 163.974C33.1898 163.755 33.2696 163.645 33.4691 163.645H35.654C35.8336 163.645 35.9433 163.755 35.9832 163.974C36.1229 166.069 35.7637 167.706 34.9057 168.883C34.0677 170.06 32.7408 170.649 30.9251 170.649Z" fill="#291A14"/>
<defs>
<clipPath id="clip0_477_1408">
<rect width="127.362" height="134.71" fill="white" transform="translate(20.8188)"/>
</clipPath>
</defs>
</svg>
