<svg width="660" height="516" viewBox="0 0 660 516" fill="none" xmlns="http://www.w3.org/2000/svg">
<path fill-rule="evenodd" clip-rule="evenodd" d="M424.482 77.7939C396.422 65.4854 365.414 58.6547 332.81 58.6547C300.497 58.6547 269.752 65.3639 241.891 77.4653V84.8786C269.633 72.3849 300.41 65.4329 332.81 65.4329C365.504 65.4329 396.544 72.5114 424.482 85.2194V77.7939ZM437.713 91.7808V84.1143C503.393 118.13 550.459 183.09 559.611 259.696H552.782C543.817 186.931 499.585 125.085 437.713 91.7808ZM554.121 299.39C551.968 338.721 539.561 375.322 519.527 406.564H521.071V416.485C544.227 382.862 558.608 342.728 560.909 299.39H554.121ZM487.05 446.258H496.641C455.135 488.97 397.071 515.505 332.81 515.505C265.934 515.505 205.77 486.766 163.995 440.965H173.289C213.599 482.743 270.17 508.727 332.81 508.727C392.76 508.727 447.152 484.926 487.05 446.258ZM142.803 401.271C123.846 369.795 112.489 333.224 111.272 294.098H104.49C105.797 337.405 119.158 377.681 141.333 411.686V401.271H142.803ZM227.336 84.4106C163.47 117.716 117.315 180.325 106.704 254.404H113.555C123.934 184.16 167.266 124.65 227.336 92.0887V84.4106Z" fill="#710F2C"/>
<path d="M418.925 86.4798C418.925 134.041 380.37 172.596 332.809 172.596C285.248 172.596 246.692 134.041 246.692 86.4798C246.692 38.9189 285.248 0.363281 332.809 0.363281C380.37 0.363281 418.925 38.9189 418.925 86.4798Z" fill="#5EBEAA"/>
<path d="M240.568 61.2269H424.483V112.829H240.568V61.2269Z" fill="#710F2C"/>
<path d="M404.971 94.9459C404.816 94.9459 404.739 94.8598 404.739 94.6876V78.2824C404.739 78.1102 404.807 78.024 404.945 78.024H411.533C411.671 78.024 411.74 78.1102 411.74 78.2824V79.9617C411.74 80.1511 411.671 80.2459 411.533 80.2459H407.141V85.2837H411.146C411.283 85.2837 411.352 85.3784 411.352 85.5679V87.1438C411.352 87.316 411.283 87.4021 411.146 87.4021H407.141V92.7241H411.533C411.671 92.7241 411.74 92.8189 411.74 93.0083V94.6876C411.74 94.8598 411.671 94.9459 411.533 94.9459H404.971Z" fill="#F5DFF5"/>
<path d="M396.039 95.1003C394.747 95.1003 393.774 94.6697 393.119 93.8085C392.482 92.9473 392.164 91.647 392.164 89.9074V83.2679C392.164 81.5111 392.542 80.1763 393.3 79.2634C394.075 78.3334 395.195 77.8683 396.659 77.8683C398.14 77.8683 399.26 78.3592 400.017 79.3409C400.792 80.3054 401.111 81.6316 400.973 83.3195C400.973 83.4745 400.904 83.552 400.767 83.552H398.777C398.622 83.552 398.562 83.4659 398.596 83.2937C398.7 82.2775 398.579 81.4938 398.235 80.9427C397.89 80.3743 397.374 80.0902 396.685 80.0902C395.961 80.0902 395.427 80.3571 395.083 80.891C394.738 81.4077 394.566 82.2172 394.566 83.3195V89.7008C394.566 90.8375 394.713 91.6556 395.005 92.1551C395.315 92.6373 395.841 92.8785 396.581 92.8785C397.288 92.8785 397.821 92.5943 398.183 92.0259C398.545 91.4575 398.726 90.5964 398.726 89.4424V88.2023H396.84C396.685 88.2023 396.607 88.1076 396.607 87.9181V86.5231C396.607 86.3508 396.685 86.2647 396.84 86.2647H400.844C400.982 86.2647 401.051 86.3508 401.051 86.5231V91.3284C401.051 92.1378 401.059 92.7923 401.077 93.2918C401.111 93.7913 401.154 94.2477 401.206 94.6611C401.24 94.8505 401.171 94.9452 400.999 94.9452H399.449C399.311 94.9452 399.234 94.8677 399.217 94.7127C399.182 94.5061 399.156 94.2649 399.139 93.9894C399.122 93.6966 399.105 93.3435 399.087 92.9301H399.061C398.803 93.6018 398.424 94.1358 397.925 94.5319C397.443 94.9108 396.814 95.1003 396.039 95.1003Z" fill="#F5DFF5"/>
<path d="M380.083 94.9459C379.945 94.9459 379.876 94.8598 379.876 94.6876V78.2824C379.876 78.1102 379.945 78.024 380.083 78.024H382.796C382.934 78.024 383.02 78.0843 383.054 78.2049L385.534 87.1438C385.655 87.5916 385.784 88.0911 385.922 88.6422C386.06 89.1761 386.189 89.7187 386.309 90.2698C386.43 90.8037 386.533 91.286 386.619 91.7166H386.671C386.637 91.3721 386.611 90.976 386.594 90.5282C386.576 90.0804 386.559 89.6239 386.542 89.1589C386.525 88.6939 386.507 88.2375 386.49 87.7897C386.49 87.3419 386.49 86.9457 386.49 86.6013V78.2824C386.49 78.1102 386.559 78.024 386.697 78.024H388.531C388.686 78.024 388.764 78.1102 388.764 78.2824V94.6876C388.764 94.8598 388.686 94.9459 388.531 94.9459H385.844C385.724 94.9459 385.646 94.8943 385.612 94.7909L383.158 86.0587C382.916 85.2148 382.71 84.3881 382.537 83.5786C382.365 82.7518 382.202 81.994 382.047 81.3051H381.995C382.029 81.8046 382.055 82.3815 382.072 83.036C382.09 83.6733 382.107 84.3192 382.124 84.9737C382.141 85.6281 382.15 86.2051 382.15 86.7046V94.6876C382.15 94.8598 382.081 94.9459 381.943 94.9459H380.083Z" fill="#F5DFF5"/>
<path d="M367.636 94.9459C367.498 94.9459 367.438 94.8512 367.455 94.6618L370.891 78.2307C370.908 78.0929 370.994 78.024 371.149 78.024H373.733C373.888 78.024 373.974 78.0929 373.991 78.2307L377.427 94.6359C377.462 94.8426 377.401 94.9459 377.246 94.9459H375.102C374.982 94.9459 374.904 94.8857 374.87 94.7651L373.035 84.0953C372.915 83.5097 372.803 82.9241 372.7 82.3385C372.613 81.7357 372.527 81.1329 372.441 80.53H372.389C372.321 81.1329 372.243 81.7357 372.157 82.3385C372.071 82.9241 371.968 83.5183 371.847 84.1211L369.987 94.7393C369.97 94.877 369.892 94.9459 369.754 94.9459H367.636ZM370.271 91.0965L370.633 89.0039H374.172L374.611 91.0965H370.271Z" fill="#F5DFF5"/>
<path d="M356.408 94.9459C356.253 94.9459 356.175 94.8598 356.175 94.6876V78.2824C356.175 78.1102 356.253 78.024 356.408 78.024H358.345C358.5 78.024 358.578 78.1102 358.578 78.2824V85.1545H362.634V78.2824C362.634 78.1102 362.712 78.024 362.867 78.024H364.778C364.951 78.024 365.037 78.1102 365.037 78.2824V94.6876C365.037 94.8598 364.951 94.9459 364.778 94.9459H362.867C362.712 94.9459 362.634 94.8598 362.634 94.6876V87.3505H358.578V94.6876C358.578 94.8598 358.5 94.9459 358.345 94.9459H356.408Z" fill="#F5DFF5"/>
<path d="M348.373 95.1003C346.909 95.1003 345.79 94.6611 345.015 93.7827C344.257 92.8871 343.878 91.5178 343.878 89.6749V83.2937C343.878 81.4852 344.257 80.1332 345.015 79.2376C345.79 78.3248 346.909 77.8683 348.373 77.8683C349.424 77.8683 350.294 78.1095 350.983 78.5917C351.672 79.0568 352.163 79.7199 352.455 80.581C352.765 81.4422 352.852 82.467 352.714 83.6554C352.679 83.8276 352.61 83.9137 352.507 83.9137H350.518C350.346 83.9137 350.277 83.8104 350.311 83.6037C350.397 82.467 350.285 81.5972 349.975 80.9944C349.665 80.3916 349.131 80.0902 348.373 80.0902C347.667 80.0902 347.142 80.3485 346.798 80.8652C346.453 81.3819 346.281 82.2345 346.281 83.4229V89.5199C346.281 90.7083 346.453 91.5695 346.798 92.1034C347.159 92.6201 347.685 92.8785 348.373 92.8785C349.2 92.8785 349.751 92.5598 350.027 91.9226C350.32 91.2853 350.432 90.4241 350.363 89.3391C350.328 89.1496 350.397 89.0549 350.569 89.0549H352.455C352.61 89.0549 352.705 89.1496 352.74 89.3391C352.86 91.1475 352.55 92.5598 351.81 93.576C351.086 94.5922 349.941 95.1003 348.373 95.1003Z" fill="#F5DFF5"/>
<path d="M331.789 95.1003C330.325 95.1003 329.205 94.6611 328.43 93.7827C327.672 92.8871 327.293 91.5178 327.293 89.6749V83.2937C327.293 81.4852 327.672 80.1332 328.43 79.2376C329.205 78.3248 330.325 77.8683 331.789 77.8683C332.839 77.8683 333.709 78.1095 334.398 78.5917C335.087 79.0568 335.578 79.7199 335.871 80.581C336.181 81.4422 336.267 82.467 336.129 83.6554C336.095 83.8276 336.026 83.9137 335.922 83.9137H333.933C333.761 83.9137 333.692 83.8104 333.726 83.6037C333.812 82.467 333.701 81.5972 333.391 80.9944C333.08 80.3916 332.547 80.0902 331.789 80.0902C331.083 80.0902 330.557 80.3485 330.213 80.8652C329.868 81.3819 329.696 82.2345 329.696 83.4229V89.5199C329.696 90.7083 329.868 91.5695 330.213 92.1034C330.574 92.6201 331.1 92.8785 331.789 92.8785C332.615 92.8785 333.167 92.5598 333.442 91.9226C333.735 91.2853 333.847 90.4241 333.778 89.3391C333.744 89.1496 333.812 89.0549 333.985 89.0549H335.871C336.026 89.0549 336.12 89.1496 336.155 89.3391C336.275 91.1475 335.965 92.5598 335.225 93.576C334.501 94.5922 333.356 95.1003 331.789 95.1003Z" fill="#F5DFF5"/>
<path d="M321.696 94.9459C321.558 94.9459 321.49 94.8598 321.49 94.6876V78.2824C321.49 78.1102 321.558 78.024 321.696 78.024H323.66C323.815 78.024 323.892 78.1102 323.892 78.2824V94.6876C323.892 94.8598 323.815 94.9459 323.66 94.9459H321.696Z" fill="#F5DFF5"/>
<path d="M306.852 94.9459C306.714 94.9459 306.646 94.8598 306.646 94.6876L306.878 78.2824C306.878 78.1102 306.956 78.024 307.111 78.024H309.694C309.849 78.024 309.935 78.0929 309.952 78.2307L312.329 87.6088L314.732 78.2307C314.766 78.0929 314.861 78.024 315.016 78.024H317.6C317.737 78.024 317.806 78.1102 317.806 78.2824L318.039 94.6876C318.039 94.8598 317.961 94.9459 317.806 94.9459H315.894C315.739 94.9459 315.662 94.8598 315.662 94.6876L315.584 85.5679C315.567 84.8961 315.567 84.233 315.584 83.5786C315.602 82.9241 315.627 82.304 315.662 81.7184H315.636C315.516 82.2524 315.378 82.7949 315.223 83.346C315.085 83.8972 314.939 84.4311 314.784 84.9478L312.639 92.5175C312.605 92.6552 312.519 92.7241 312.381 92.7241H312.278C312.157 92.7241 312.088 92.6552 312.071 92.5175L309.875 84.922C309.72 84.4053 309.573 83.88 309.436 83.346C309.298 82.7949 309.169 82.2524 309.048 81.7184H308.996C309.048 82.304 309.083 82.9241 309.1 83.5786C309.117 84.2158 309.126 84.8789 309.126 85.5679L309.022 94.6876C309.022 94.8598 308.945 94.9459 308.79 94.9459H306.852Z" fill="#F5DFF5"/>
<path d="M296.661 94.9459C296.506 94.9459 296.428 94.8598 296.428 94.6876V78.2824C296.428 78.1102 296.497 78.024 296.635 78.024H303.223C303.361 78.024 303.43 78.1102 303.43 78.2824V79.9617C303.43 80.1511 303.361 80.2459 303.223 80.2459H298.831V85.2837H302.836C302.973 85.2837 303.042 85.3784 303.042 85.5679V87.1438C303.042 87.316 302.973 87.4021 302.836 87.4021H298.831V92.7241H303.223C303.361 92.7241 303.43 92.8189 303.43 93.0083V94.6876C303.43 94.8598 303.361 94.9459 303.223 94.9459H296.661Z" fill="#F5DFF5"/>
<path d="M288.455 94.9459C288.3 94.9459 288.222 94.8598 288.222 94.6876V80.2459H285.535C285.38 80.2459 285.303 80.1511 285.303 79.9617V78.2824C285.303 78.1102 285.38 78.024 285.535 78.024H293.338C293.475 78.024 293.544 78.1102 293.544 78.2824V79.9617C293.544 80.1511 293.475 80.2459 293.338 80.2459H290.625V94.6876C290.625 94.8598 290.547 94.9459 290.392 94.9459H288.455Z" fill="#F5DFF5"/>
<path d="M278.963 95.1003C277.947 95.1003 277.137 94.8936 276.534 94.4802C275.931 94.0669 275.509 93.4985 275.268 92.7751C275.044 92.0345 274.967 91.1733 275.036 90.1916C275.053 90.0022 275.131 89.9074 275.268 89.9074H277.18C277.335 89.9074 277.404 90.0022 277.387 90.1916C277.283 91.0872 277.378 91.7675 277.671 92.2326C277.964 92.6976 278.412 92.9301 279.014 92.9301C279.583 92.9301 280.005 92.7665 280.28 92.4393C280.556 92.0948 280.694 91.5523 280.694 90.8117C280.694 90.1916 280.599 89.6663 280.409 89.2357C280.22 88.7879 279.901 88.4004 279.454 88.0732L277.309 86.3939C276.551 85.8083 275.992 85.171 275.63 84.4821C275.268 83.7759 275.096 82.9148 275.113 81.8986C275.131 80.6069 275.466 79.6165 276.121 78.9276C276.775 78.2214 277.714 77.8683 278.937 77.8683C280.366 77.8683 281.408 78.2903 282.063 79.1343C282.717 79.9782 282.976 81.1408 282.838 82.622C282.838 82.8459 282.769 82.9578 282.631 82.9578H280.668C280.53 82.9578 280.47 82.8459 280.487 82.622C280.573 81.8297 280.487 81.2011 280.229 80.736C279.97 80.271 279.566 80.0385 279.014 80.0385C278.549 80.0385 278.179 80.1935 277.903 80.5035C277.645 80.7963 277.507 81.2527 277.49 81.8728C277.49 82.4756 277.602 82.9837 277.826 83.397C278.05 83.8104 278.377 84.1893 278.808 84.5338L280.9 86.1355C281.434 86.5489 281.856 86.9709 282.166 87.4014C282.493 87.832 282.726 88.3229 282.864 88.874C283.019 89.408 283.096 90.0452 283.096 90.7858C283.096 92.1465 282.76 93.2057 282.089 93.9635C281.434 94.7213 280.392 95.1003 278.963 95.1003Z" fill="#F5DFF5"/>
<path d="M267.386 94.9459C267.231 94.9459 267.153 94.8598 267.153 94.6876V89.1331L263.666 78.3599C263.597 78.136 263.649 78.024 263.821 78.024H266.043C266.18 78.024 266.258 78.0843 266.275 78.2049L267.644 83.5269C267.765 84.0264 267.885 84.5345 268.006 85.0512C268.127 85.5506 268.239 86.0501 268.342 86.5496H268.394C268.514 86.0501 268.635 85.5506 268.755 85.0512C268.876 84.5345 268.996 84.0264 269.117 83.5269L270.486 78.2049C270.521 78.0843 270.59 78.024 270.693 78.024H272.863C273.035 78.024 273.096 78.136 273.044 78.3599L269.556 89.1072V94.6876C269.556 94.8598 269.496 94.9459 269.375 94.9459H267.386Z" fill="#F5DFF5"/>
<path d="M257.534 95.1003C256.518 95.1003 255.708 94.8936 255.106 94.4803C254.503 94.0669 254.081 93.4986 253.84 92.7752C253.616 92.0346 253.538 91.1734 253.607 90.1917C253.624 90.0022 253.702 89.9075 253.84 89.9075H255.751C255.906 89.9075 255.975 90.0022 255.958 90.1917C255.855 91.0873 255.949 91.7676 256.242 92.2326C256.535 92.6977 256.983 92.9302 257.586 92.9302C258.154 92.9302 258.576 92.7666 258.852 92.4393C259.127 92.0949 259.265 91.5523 259.265 90.8117C259.265 90.1917 259.17 89.6664 258.981 89.2358C258.791 88.788 258.473 88.4005 258.025 88.0732L255.881 86.3939C255.123 85.8083 254.563 85.1711 254.201 84.4822C253.84 83.776 253.667 82.9148 253.685 81.8987C253.702 80.6069 254.038 79.6166 254.692 78.9276C255.347 78.2215 256.285 77.8684 257.508 77.8684C258.938 77.8684 259.98 78.2904 260.634 79.1343C261.289 79.9783 261.547 81.1408 261.409 82.622C261.409 82.8459 261.34 82.9579 261.203 82.9579H259.239C259.101 82.9579 259.041 82.8459 259.058 82.622C259.144 81.8298 259.058 81.2011 258.8 80.7361C258.542 80.2711 258.137 80.0385 257.586 80.0385C257.121 80.0385 256.75 80.1936 256.475 80.5036C256.216 80.7964 256.079 81.2528 256.061 81.8728C256.061 82.4756 256.173 82.9837 256.397 83.3971C256.621 83.8104 256.948 84.1894 257.379 84.5338L259.472 86.1356C260.006 86.549 260.428 86.9709 260.738 87.4015C261.065 87.8321 261.297 88.3229 261.435 88.8741C261.59 89.408 261.668 90.0453 261.668 90.7859C261.668 92.1465 261.332 93.2058 260.66 93.9636C260.006 94.7214 258.964 95.1003 257.534 95.1003Z" fill="#F5DFF5"/>
<path d="M109.575 275.558L197.235 427.39H21.9148L109.575 275.558Z" fill="#E42D58"/>
<path d="M0 325.525H220.027V406.172H0V325.525Z" fill="#710F2C"/>
<path d="M148.733 388.648C147.418 388.648 146.428 388.21 145.761 387.334C145.113 386.457 144.788 385.133 144.788 383.363V376.604C144.788 374.816 145.174 373.457 145.945 372.528C146.734 371.581 147.874 371.108 149.364 371.108C150.872 371.108 152.012 371.607 152.783 372.607C153.572 373.588 153.896 374.938 153.756 376.657C153.756 376.814 153.686 376.893 153.546 376.893H151.521C151.363 376.893 151.301 376.806 151.337 376.63C151.442 375.596 151.319 374.798 150.968 374.237C150.618 373.659 150.092 373.369 149.39 373.369C148.654 373.369 148.111 373.641 147.76 374.185C147.409 374.71 147.234 375.535 147.234 376.657V383.152C147.234 384.309 147.383 385.142 147.681 385.65C147.997 386.141 148.531 386.387 149.285 386.387C150.004 386.387 150.548 386.098 150.916 385.519C151.284 384.94 151.468 384.064 151.468 382.889V381.627H149.548C149.39 381.627 149.312 381.53 149.312 381.338V379.918C149.312 379.742 149.39 379.655 149.548 379.655H153.624C153.765 379.655 153.835 379.742 153.835 379.918V384.809C153.835 385.633 153.844 386.299 153.861 386.808C153.896 387.316 153.94 387.781 153.993 388.201C154.028 388.394 153.958 388.491 153.782 388.491H152.204C152.064 388.491 151.985 388.412 151.968 388.254C151.933 388.044 151.906 387.798 151.889 387.518C151.871 387.22 151.854 386.86 151.836 386.439H151.81C151.547 387.123 151.161 387.667 150.653 388.07C150.162 388.456 149.522 388.648 148.733 388.648Z" fill="#F5DFF5"/>
<path d="M132.493 388.491C132.353 388.491 132.283 388.403 132.283 388.228V371.529C132.283 371.353 132.353 371.266 132.493 371.266H135.254C135.395 371.266 135.482 371.327 135.517 371.45L138.042 380.549C138.165 381.005 138.296 381.513 138.436 382.074C138.577 382.618 138.708 383.17 138.831 383.731C138.954 384.274 139.059 384.765 139.147 385.204H139.199C139.164 384.853 139.138 384.45 139.12 383.994C139.103 383.538 139.085 383.073 139.068 382.6C139.05 382.127 139.033 381.662 139.015 381.206C139.015 380.75 139.015 380.347 139.015 379.997V371.529C139.015 371.353 139.085 371.266 139.225 371.266H141.093C141.25 371.266 141.329 371.353 141.329 371.529V388.228C141.329 388.403 141.25 388.491 141.093 388.491H138.358C138.235 388.491 138.156 388.438 138.121 388.333L135.623 379.444C135.377 378.585 135.167 377.744 134.991 376.92C134.816 376.078 134.65 375.307 134.492 374.605H134.439C134.474 375.114 134.501 375.701 134.518 376.367C134.536 377.016 134.553 377.674 134.571 378.34C134.588 379.006 134.597 379.593 134.597 380.102V388.228C134.597 388.403 134.527 388.491 134.387 388.491H132.493Z" fill="#F5DFF5"/>
<path d="M126.349 388.491C126.209 388.491 126.139 388.403 126.139 388.228V371.529C126.139 371.353 126.209 371.266 126.349 371.266H128.348C128.506 371.266 128.585 371.353 128.585 371.529V388.228C128.585 388.403 128.506 388.491 128.348 388.491H126.349Z" fill="#F5DFF5"/>
<path d="M116.585 388.491C116.428 388.491 116.349 388.403 116.349 388.228V371.529C116.349 371.353 116.428 371.266 116.585 371.266H118.558C118.715 371.266 118.794 371.353 118.794 371.529V386.229H123.002C123.16 386.229 123.239 386.326 123.239 386.518V388.228C123.239 388.403 123.16 388.491 123.002 388.491H116.585Z" fill="#F5DFF5"/>
<path d="M103.89 388.491C103.75 388.491 103.689 388.394 103.706 388.202L107.204 371.476C107.221 371.336 107.309 371.266 107.467 371.266H110.097C110.254 371.266 110.342 371.336 110.36 371.476L113.857 388.175C113.892 388.386 113.831 388.491 113.673 388.491H111.491C111.368 388.491 111.289 388.429 111.254 388.307L109.387 377.446C109.264 376.85 109.15 376.253 109.045 375.657C108.957 375.044 108.869 374.43 108.782 373.817H108.729C108.659 374.43 108.58 375.044 108.493 375.657C108.405 376.253 108.3 376.858 108.177 377.472L106.283 388.28C106.266 388.421 106.187 388.491 106.047 388.491H103.89ZM106.573 384.572L106.941 382.442H110.544L110.991 384.572H106.573Z" fill="#F5DFF5"/>
<path d="M94.6434 388.491C94.4856 388.491 94.4067 388.403 94.4067 388.228V371.529C94.4067 371.353 94.4769 371.266 94.6171 371.266H101.323C101.463 371.266 101.534 371.353 101.534 371.529V373.238C101.534 373.431 101.463 373.527 101.323 373.527H96.8525V378.655H100.929C101.069 378.655 101.139 378.752 101.139 378.945V380.549C101.139 380.724 101.069 380.812 100.929 380.812H96.8525V386.229H101.323C101.463 386.229 101.534 386.326 101.534 386.518V388.228C101.534 388.403 101.463 388.491 101.323 388.491H94.6434Z" fill="#F5DFF5"/>
<path d="M81.9259 388.491C81.7681 388.491 81.6892 388.403 81.6892 388.228V371.529C81.6892 371.353 81.7681 371.266 81.9259 371.266H83.8982C84.056 371.266 84.1349 371.353 84.1349 371.529V378.524H88.2637V371.529C88.2637 371.353 88.3426 371.266 88.5004 371.266H90.4465C90.6218 371.266 90.7094 371.353 90.7094 371.529V388.228C90.7094 388.403 90.6218 388.491 90.4465 388.491H88.5004C88.3426 388.491 88.2637 388.403 88.2637 388.228V380.759H84.1349V388.228C84.1349 388.403 84.056 388.491 83.8982 388.491H81.9259Z" fill="#F5DFF5"/>
<path d="M72.2018 388.491C72.0616 388.491 71.9652 388.447 71.9126 388.359L65.9692 378.76C65.5835 378.164 65.2679 377.516 65.0225 376.814C64.7946 376.113 64.6806 375.359 64.6806 374.553C64.6806 373.413 64.9436 372.554 65.4695 371.976C66.013 371.397 66.7932 371.108 67.8101 371.108C68.7217 371.108 69.4142 371.379 69.8876 371.923C70.361 372.466 70.5977 373.238 70.5977 374.237C70.5977 374.816 70.5275 375.377 70.3873 375.92C70.247 376.464 70.0016 377.025 69.6509 377.603C69.3178 378.164 68.8708 378.778 68.3097 379.444L67.1263 378.077C67.6348 377.393 68.0029 376.788 68.2308 376.262C68.4588 375.719 68.5727 375.114 68.5727 374.448C68.5727 373.957 68.5026 373.597 68.3623 373.369C68.2221 373.124 68.0029 373.001 67.7049 373.001C67.4068 373.001 67.1702 373.124 66.9948 373.369C66.837 373.597 66.7581 373.974 66.7581 374.5C66.7581 375.026 66.837 375.552 66.9948 376.078C67.1702 376.604 67.4068 377.112 67.7049 377.603L74.3583 388.149C74.4109 388.254 74.4284 388.342 74.4109 388.412C74.3933 388.464 74.332 388.491 74.2268 388.491H72.2018ZM67.8101 388.648C66.6354 388.648 65.7238 388.272 65.0751 387.518C64.4264 386.764 64.1021 385.721 64.1021 384.388C64.1021 383.827 64.1546 383.301 64.2598 382.81C64.365 382.302 64.5228 381.811 64.7332 381.338C64.9611 380.847 65.2504 380.347 65.601 379.839C65.9692 379.33 66.4075 378.813 66.9159 378.287L67.7838 379.944C67.4156 380.505 67.1088 381.013 66.8633 381.469C66.6354 381.907 66.4689 382.354 66.3637 382.81C66.2585 383.249 66.2059 383.739 66.2059 384.283C66.2059 385.054 66.3637 385.659 66.6793 386.098C66.9948 386.518 67.4331 386.729 67.9942 386.729C69.0285 386.729 69.8 386.098 70.3084 384.835C70.8343 383.573 71.0973 381.679 71.0973 379.155C71.0973 378.98 71.1938 378.892 71.3866 378.892H72.8856C73.0609 378.892 73.1486 378.98 73.1486 379.155C73.1486 381.171 72.9382 382.889 72.5174 384.309C72.0967 385.712 71.483 386.79 70.6766 387.544C69.8876 388.28 68.9321 388.648 67.8101 388.648Z" fill="#F5DFF5"/>
<path d="M184.263 360.439C184.105 360.439 184.026 360.351 184.026 360.176V343.477C184.026 343.302 184.105 343.214 184.263 343.214H186.235C186.393 343.214 186.472 343.302 186.472 343.477V350.472H190.6V343.477C190.6 343.302 190.679 343.214 190.837 343.214H192.783C192.958 343.214 193.046 343.302 193.046 343.477V360.176C193.046 360.351 192.958 360.439 192.783 360.439H190.837C190.679 360.439 190.6 360.351 190.6 360.176V352.707H186.472V360.176C186.472 360.351 186.393 360.439 186.235 360.439H184.263Z" fill="#F5DFF5"/>
<path d="M175.911 360.439C175.753 360.439 175.674 360.351 175.674 360.176V345.475H172.939C172.781 345.475 172.702 345.379 172.702 345.186V343.477C172.702 343.302 172.781 343.214 172.939 343.214H180.881C181.021 343.214 181.091 343.302 181.091 343.477V345.186C181.091 345.379 181.021 345.475 180.881 345.475H178.12V360.176C178.12 360.351 178.041 360.439 177.883 360.439H175.911Z" fill="#F5DFF5"/>
<path d="M159.204 360.439C159.098 360.439 159.028 360.369 158.993 360.229L156.206 343.529C156.171 343.319 156.232 343.214 156.39 343.214H158.415C158.555 343.214 158.634 343.284 158.651 343.424L160.019 352.26C160.106 352.839 160.177 353.435 160.229 354.049C160.299 354.662 160.352 355.276 160.387 355.89C160.422 356.486 160.457 357.082 160.492 357.678H160.545C160.615 357.082 160.694 356.486 160.781 355.89C160.869 355.293 160.974 354.697 161.097 354.101L162.359 347.027L161.781 343.845C161.746 343.635 161.807 343.529 161.965 343.529H163.937C164.077 343.529 164.165 343.608 164.2 343.766L165.778 354.049C165.866 354.662 165.945 355.267 166.015 355.863C166.102 356.459 166.164 357.064 166.199 357.678H166.251C166.287 357.064 166.322 356.468 166.357 355.89C166.409 355.311 166.462 354.715 166.514 354.101C166.585 353.488 166.655 352.848 166.725 352.181L168.04 343.424C168.057 343.284 168.136 343.214 168.276 343.214H170.301C170.459 343.214 170.52 343.319 170.485 343.529L167.724 360.229C167.689 360.369 167.61 360.439 167.487 360.439H165.121C164.98 360.439 164.893 360.369 164.858 360.229L163.911 353.917C163.823 353.374 163.736 352.83 163.648 352.287C163.578 351.743 163.516 351.2 163.464 350.656H163.411C163.341 351.2 163.262 351.743 163.175 352.287C163.087 352.813 162.99 353.347 162.885 353.891L161.781 360.229C161.763 360.299 161.728 360.351 161.676 360.386C161.623 360.422 161.579 360.439 161.544 360.439H159.204Z" fill="#F5DFF5"/>
<path d="M149.185 360.597C147.713 360.597 146.582 360.159 145.793 359.282C145.004 358.406 144.61 357.091 144.61 355.337V348.368C144.61 346.58 145.004 345.248 145.793 344.371C146.582 343.495 147.713 343.056 149.185 343.056C150.676 343.056 151.815 343.495 152.604 344.371C153.393 345.248 153.788 346.58 153.788 348.368V355.337C153.788 357.091 153.393 358.406 152.604 359.282C151.815 360.159 150.676 360.597 149.185 360.597ZM149.185 358.335C149.904 358.335 150.439 358.09 150.79 357.599C151.158 357.108 151.342 356.31 151.342 355.206V348.474C151.342 347.352 151.158 346.545 150.79 346.054C150.439 345.563 149.904 345.318 149.185 345.318C148.484 345.318 147.949 345.563 147.581 346.054C147.231 346.545 147.055 347.352 147.055 348.474V355.206C147.055 356.31 147.231 357.108 147.581 357.599C147.949 358.09 148.484 358.335 149.185 358.335Z" fill="#F5DFF5"/>
<path d="M133.418 360.439C133.278 360.439 133.208 360.351 133.208 360.176V343.477C133.208 343.302 133.278 343.214 133.418 343.214H136.785C138.397 343.214 139.572 343.608 140.308 344.397C141.045 345.186 141.413 346.413 141.413 348.079C141.413 349.376 141.229 350.411 140.861 351.182C140.51 351.936 140.002 352.462 139.335 352.76L139.309 352.786L142.044 360.097C142.097 360.325 142.027 360.439 141.834 360.439H139.677C139.555 360.439 139.467 360.378 139.414 360.255L136.995 353.286H135.654V360.176C135.654 360.351 135.575 360.439 135.417 360.439H133.418ZM135.654 351.156H136.837C137.609 351.156 138.161 350.919 138.494 350.446C138.827 349.955 138.994 349.219 138.994 348.237C138.994 347.255 138.809 346.554 138.441 346.133C138.091 345.695 137.538 345.475 136.785 345.475H135.654V351.156Z" fill="#F5DFF5"/>
<path d="M124.352 360.597C123.037 360.597 122.046 360.159 121.38 359.282C120.731 358.406 120.407 357.082 120.407 355.311V348.553C120.407 346.764 120.793 345.406 121.564 344.476C122.353 343.53 123.493 343.056 124.983 343.056C126.491 343.056 127.63 343.556 128.402 344.555C129.191 345.537 129.515 346.887 129.375 348.605C129.375 348.763 129.304 348.842 129.164 348.842H127.139C126.981 348.842 126.92 348.754 126.955 348.579C127.06 347.544 126.938 346.747 126.587 346.186C126.236 345.607 125.71 345.318 125.009 345.318C124.273 345.318 123.729 345.59 123.379 346.133C123.028 346.659 122.853 347.483 122.853 348.605V355.101C122.853 356.258 123.002 357.091 123.3 357.599C123.615 358.09 124.15 358.335 124.904 358.335C125.623 358.335 126.166 358.046 126.534 357.468C126.903 356.889 127.087 356.012 127.087 354.838V353.575H125.167C125.009 353.575 124.93 353.479 124.93 353.286V351.866C124.93 351.691 125.009 351.603 125.167 351.603H129.243C129.383 351.603 129.454 351.691 129.454 351.866V356.758C129.454 357.582 129.462 358.248 129.48 358.756C129.515 359.265 129.559 359.729 129.611 360.15C129.646 360.343 129.576 360.439 129.401 360.439H127.823C127.683 360.439 127.604 360.36 127.586 360.203C127.551 359.992 127.525 359.747 127.507 359.466C127.49 359.168 127.472 358.809 127.455 358.388H127.429C127.166 359.072 126.78 359.615 126.271 360.018C125.781 360.404 125.141 360.597 124.352 360.597Z" fill="#F5DFF5"/>
<path d="M106.489 360.439C106.331 360.439 106.252 360.351 106.252 360.176V343.477C106.252 343.302 106.331 343.214 106.489 343.214H108.461C108.619 343.214 108.698 343.302 108.698 343.477V358.177H112.905C113.063 358.177 113.142 358.274 113.142 358.467V360.176C113.142 360.351 113.063 360.439 112.905 360.439H106.489Z" fill="#F5DFF5"/>
<path d="M93.793 360.439C93.6527 360.439 93.5913 360.343 93.6089 360.15L97.1065 343.424C97.124 343.284 97.2117 343.214 97.3695 343.214H99.9993C100.157 343.214 100.245 343.284 100.262 343.424L103.76 360.123C103.795 360.334 103.734 360.439 103.576 360.439H101.393C101.27 360.439 101.191 360.378 101.156 360.255L99.2892 349.394C99.1665 348.798 99.0526 348.202 98.9474 347.606C98.8597 346.992 98.7721 346.378 98.6844 345.765H98.6318C98.5617 346.378 98.4828 346.992 98.3951 347.606C98.3075 348.202 98.2023 348.807 98.0795 349.42L96.1861 360.229C96.1686 360.369 96.0897 360.439 95.9494 360.439H93.793ZM96.4754 356.521L96.8435 354.391H100.446L100.893 356.521H96.4754Z" fill="#F5DFF5"/>
<path d="M82.311 360.439C82.1707 360.439 82.1006 360.351 82.1006 360.176V343.477C82.1006 343.302 82.1707 343.214 82.311 343.214H85.0723C85.2125 343.214 85.3002 343.275 85.3352 343.398L87.8599 352.497C87.9826 352.953 88.1141 353.461 88.2543 354.022C88.3946 354.566 88.5261 355.118 88.6488 355.679C88.7715 356.223 88.8767 356.714 88.9644 357.152H89.017C88.9819 356.801 88.9556 356.398 88.9381 355.942C88.9205 355.486 88.903 355.022 88.8855 354.548C88.8679 354.075 88.8504 353.61 88.8329 353.155C88.8329 352.699 88.8329 352.295 88.8329 351.945V343.477C88.8329 343.302 88.903 343.214 89.0433 343.214H90.9104C91.0682 343.214 91.1471 343.302 91.1471 343.477V360.176C91.1471 360.351 91.0682 360.439 90.9104 360.439H88.1754C88.0527 360.439 87.9738 360.386 87.9387 360.281L85.4404 351.393C85.195 350.533 84.9846 349.692 84.8093 348.868C84.634 348.026 84.4674 347.255 84.3096 346.554H84.257C84.2921 347.062 84.3184 347.649 84.3359 348.316C84.3535 348.964 84.371 349.622 84.3885 350.288C84.406 350.954 84.4148 351.542 84.4148 352.05V360.176C84.4148 360.351 84.3447 360.439 84.2044 360.439H82.311Z" fill="#F5DFF5"/>
<path d="M74.0043 360.597C72.5316 360.597 71.4008 360.159 70.6119 359.282C69.8229 358.406 69.4285 357.091 69.4285 355.337V348.368C69.4285 346.58 69.8229 345.248 70.6119 344.371C71.4008 343.495 72.5316 343.056 74.0043 343.056C75.4945 343.056 76.6341 343.495 77.4231 344.371C78.212 345.248 78.6065 346.58 78.6065 348.368V355.337C78.6065 357.091 78.212 358.406 77.4231 359.282C76.6341 360.159 75.4945 360.597 74.0043 360.597ZM74.0043 358.335C74.7231 358.335 75.2579 358.09 75.6085 357.599C75.9767 357.108 76.1608 356.31 76.1608 355.206V348.474C76.1608 347.352 75.9767 346.545 75.6085 346.054C75.2579 345.563 74.7231 345.318 74.0043 345.318C73.303 345.318 72.7683 345.563 72.4001 346.054C72.0495 346.545 71.8742 347.352 71.8742 348.474V355.206C71.8742 356.31 72.0495 357.108 72.4001 357.599C72.7683 358.09 73.303 358.335 74.0043 358.335Z" fill="#F5DFF5"/>
<path d="M62.2933 360.597C61.2589 360.597 60.4349 360.387 59.8213 359.966C59.2077 359.545 58.7781 358.967 58.5327 358.23C58.3048 357.476 58.2259 356.6 58.296 355.6C58.3135 355.408 58.3924 355.311 58.5327 355.311H60.4787C60.6365 355.311 60.7066 355.408 60.6891 355.6C60.5839 356.512 60.6803 357.205 60.9784 357.678C61.2764 358.151 61.7323 358.388 62.3459 358.388C62.9244 358.388 63.354 358.221 63.6345 357.888C63.915 357.538 64.0553 356.985 64.0553 356.232C64.0553 355.6 63.9588 355.066 63.766 354.627C63.5731 354.172 63.2488 353.777 62.793 353.444L60.6102 351.735C59.8388 351.139 59.269 350.49 58.9008 349.789C58.5327 349.07 58.3574 348.193 58.3749 347.159C58.3924 345.844 58.7343 344.836 59.4005 344.134C60.0667 343.416 61.0222 343.056 62.267 343.056C63.7222 343.056 64.7828 343.486 65.4491 344.345C66.1153 345.204 66.3783 346.387 66.238 347.895C66.238 348.123 66.1679 348.237 66.0276 348.237H64.029C63.8887 348.237 63.8273 348.123 63.8449 347.895C63.9325 347.089 63.8449 346.449 63.5819 345.975C63.3189 345.502 62.9069 345.265 62.3459 345.265C61.8725 345.265 61.4956 345.423 61.2151 345.739C60.9521 346.037 60.8118 346.501 60.7943 347.132C60.7943 347.746 60.9083 348.263 61.1362 348.684C61.3641 349.105 61.6972 349.491 62.1355 349.841L64.2656 351.472C64.8091 351.892 65.2387 352.322 65.5542 352.76C65.8874 353.199 66.124 353.698 66.2643 354.259C66.4221 354.803 66.501 355.451 66.501 356.205C66.501 357.59 66.1591 358.669 65.4754 359.44C64.8091 360.211 63.7484 360.597 62.2933 360.597Z" fill="#F5DFF5"/>
<path d="M47.2651 360.439C47.1248 360.439 47.0547 360.351 47.0547 360.176V343.477C47.0547 343.302 47.1248 343.214 47.2651 343.214H50.6312C52.2442 343.214 53.4188 343.608 54.1552 344.397C54.8915 345.186 55.2597 346.413 55.2597 348.079C55.2597 349.376 55.0756 350.411 54.7074 351.182C54.3568 351.936 53.8483 352.462 53.1821 352.76L53.1558 352.786L55.8908 360.097C55.9434 360.325 55.8733 360.439 55.6804 360.439H53.524C53.4013 360.439 53.3136 360.378 53.261 360.255L50.8416 353.286H49.5004V360.176C49.5004 360.351 49.4215 360.439 49.2637 360.439H47.2651ZM49.5004 351.156H50.6838C51.4552 351.156 52.0075 350.919 52.3406 350.446C52.6737 349.955 52.8403 349.219 52.8403 348.237C52.8403 347.255 52.6562 346.554 52.288 346.133C51.9374 345.695 51.3851 345.475 50.6312 345.475H49.5004V351.156Z" fill="#F5DFF5"/>
<path d="M36.6813 360.439C36.5235 360.439 36.4446 360.351 36.4446 360.176V343.477C36.4446 343.302 36.5147 343.214 36.655 343.214H43.361C43.5012 343.214 43.5713 343.302 43.5713 343.477V345.186C43.5713 345.379 43.5012 345.475 43.361 345.475H38.8903V350.604H42.9665C43.1067 350.604 43.1769 350.7 43.1769 350.893V352.497C43.1769 352.672 43.1067 352.76 42.9665 352.76H38.8903V358.177H43.361C43.5012 358.177 43.5713 358.274 43.5713 358.467V360.176C43.5713 360.351 43.5012 360.439 43.361 360.439H36.6813Z" fill="#F5DFF5"/>
<path d="M25.6318 360.439C25.4915 360.439 25.4214 360.351 25.4214 360.176V343.476C25.4214 343.301 25.4915 343.213 25.6318 343.213H28.656C30.2515 343.213 31.4261 343.66 32.18 344.555C32.9339 345.431 33.3108 346.807 33.3108 348.683C33.3108 350.437 32.9251 351.778 32.1537 352.707C31.3823 353.636 30.2602 354.101 28.7875 354.101H27.8671V360.176C27.8671 360.351 27.7882 360.439 27.6304 360.439H25.6318ZM27.8671 351.865H28.656C29.4275 351.865 29.9885 351.611 30.3391 351.103C30.6898 350.594 30.8651 349.797 30.8651 348.71C30.8651 347.553 30.6898 346.72 30.3391 346.211C30.006 345.703 29.4713 345.449 28.7349 345.449H27.8671V351.865Z" fill="#F5DFF5"/>
<path d="M474.644 270.135H638.677V434.167H474.644V270.135Z" fill="#B1AA9F"/>
<path d="M454.139 314.424H660V389.879H454.139V314.424Z" fill="#710F2C"/>
<path d="M600.337 373.337C600.205 373.337 600.14 373.255 600.14 373.091V357.467C600.14 357.303 600.205 357.221 600.337 357.221H602.92C603.051 357.221 603.133 357.278 603.166 357.393L605.528 365.906C605.643 366.333 605.766 366.808 605.897 367.333C606.029 367.842 606.152 368.358 606.267 368.883C606.381 369.392 606.48 369.851 606.562 370.261H606.611C606.578 369.933 606.554 369.556 606.537 369.129C606.521 368.703 606.504 368.268 606.488 367.825C606.472 367.382 606.455 366.948 606.439 366.521C606.439 366.095 606.439 365.717 606.439 365.389V357.467C606.439 357.303 606.504 357.221 606.636 357.221H608.383C608.53 357.221 608.604 357.303 608.604 357.467V373.091C608.604 373.255 608.53 373.337 608.383 373.337H605.824C605.709 373.337 605.635 373.288 605.602 373.189L603.265 364.873C603.035 364.069 602.838 363.282 602.674 362.511C602.51 361.723 602.354 361.002 602.207 360.345H602.157C602.19 360.821 602.215 361.371 602.231 361.994C602.248 362.601 602.264 363.216 602.281 363.839C602.297 364.463 602.305 365.012 602.305 365.488V373.091C602.305 373.255 602.24 373.337 602.108 373.337H600.337Z" fill="#F5DFF5"/>
<path d="M592.566 373.484C591.188 373.484 590.13 373.074 589.392 372.254C588.653 371.434 588.284 370.204 588.284 368.563V362.043C588.284 360.37 588.653 359.123 589.392 358.303C590.13 357.483 591.188 357.073 592.566 357.073C593.96 357.073 595.026 357.483 595.764 358.303C596.502 359.123 596.872 360.37 596.872 362.043V368.563C596.872 370.204 596.502 371.434 595.764 372.254C595.026 373.074 593.96 373.484 592.566 373.484ZM592.566 371.368C593.238 371.368 593.739 371.139 594.067 370.679C594.411 370.22 594.583 369.474 594.583 368.44V362.141C594.583 361.092 594.411 360.337 594.067 359.878C593.739 359.419 593.238 359.189 592.566 359.189C591.91 359.189 591.409 359.419 591.065 359.878C590.737 360.337 590.573 361.092 590.573 362.141V368.44C590.573 369.474 590.737 370.22 591.065 370.679C591.409 371.139 591.91 371.368 592.566 371.368Z" fill="#F5DFF5"/>
<path d="M582.955 373.337C582.824 373.337 582.759 373.255 582.759 373.091V357.467C582.759 357.303 582.824 357.221 582.955 357.221H584.825C584.973 357.221 585.047 357.303 585.047 357.467V373.091C585.047 373.255 584.973 373.337 584.825 373.337H582.955Z" fill="#F5DFF5"/>
<path d="M575.166 373.337C575.018 373.337 574.944 373.255 574.944 373.091V359.337H572.385C572.238 359.337 572.164 359.246 572.164 359.066V357.467C572.164 357.303 572.238 357.221 572.385 357.221H579.816C579.947 357.221 580.013 357.303 580.013 357.467V359.066C580.013 359.246 579.947 359.337 579.816 359.337H577.232V373.091C577.232 373.255 577.159 373.337 577.011 373.337H575.166Z" fill="#F5DFF5"/>
<path d="M565.544 373.484C564.149 373.484 563.083 373.066 562.345 372.229C561.623 371.377 561.262 370.072 561.262 368.317V362.24C561.262 360.518 561.623 359.23 562.345 358.377C563.083 357.508 564.149 357.073 565.544 357.073C566.544 357.073 567.373 357.303 568.029 357.762C568.685 358.205 569.152 358.836 569.431 359.656C569.727 360.477 569.809 361.453 569.677 362.584C569.645 362.748 569.579 362.83 569.48 362.83H567.586C567.422 362.83 567.356 362.732 567.389 362.535C567.471 361.453 567.364 360.624 567.069 360.05C566.774 359.476 566.265 359.189 565.544 359.189C564.871 359.189 564.371 359.435 564.043 359.927C563.715 360.419 563.551 361.231 563.551 362.363V368.17C563.551 369.301 563.715 370.122 564.043 370.63C564.387 371.122 564.888 371.368 565.544 371.368C566.331 371.368 566.856 371.065 567.118 370.458C567.397 369.851 567.504 369.031 567.438 367.997C567.405 367.817 567.471 367.727 567.635 367.727H569.431C569.579 367.727 569.669 367.817 569.702 367.997C569.817 369.72 569.521 371.065 568.816 372.033C568.127 373 567.036 373.484 565.544 373.484Z" fill="#F5DFF5"/>
<path d="M552.065 373.337C551.917 373.337 551.843 373.255 551.843 373.091V357.467C551.843 357.303 551.909 357.221 552.04 357.221H558.314C558.446 357.221 558.511 357.303 558.511 357.467V359.066C558.511 359.246 558.446 359.337 558.314 359.337H554.132V364.135H557.945C558.076 364.135 558.142 364.225 558.142 364.405V365.906C558.142 366.07 558.076 366.152 557.945 366.152H554.132V371.221H558.314C558.446 371.221 558.511 371.311 558.511 371.491V373.091C558.511 373.255 558.446 373.337 558.314 373.337H552.065Z" fill="#F5DFF5"/>
<path d="M540.118 373.337C539.987 373.337 539.921 373.255 539.921 373.091V357.467C539.921 357.303 539.987 357.221 540.118 357.221H542.701C542.833 357.221 542.915 357.278 542.948 357.393L545.31 365.906C545.424 366.333 545.547 366.808 545.679 367.333C545.81 367.842 545.933 368.358 546.048 368.883C546.163 369.392 546.261 369.851 546.343 370.261H546.392C546.359 369.933 546.335 369.556 546.318 369.129C546.302 368.703 546.286 368.268 546.269 367.825C546.253 367.382 546.236 366.948 546.22 366.521C546.22 366.095 546.22 365.717 546.22 365.389V357.467C546.22 357.303 546.286 357.221 546.417 357.221H548.164C548.311 357.221 548.385 357.303 548.385 357.467V373.091C548.385 373.255 548.311 373.337 548.164 373.337H545.605C545.49 373.337 545.416 373.288 545.383 373.189L543.046 364.873C542.816 364.069 542.619 363.282 542.455 362.511C542.291 361.723 542.136 361.002 541.988 360.345H541.939C541.972 360.821 541.996 361.371 542.013 361.994C542.029 362.601 542.045 363.216 542.062 363.839C542.078 364.463 542.086 365.012 542.086 365.488V373.091C542.086 373.255 542.021 373.337 541.89 373.337H540.118Z" fill="#F5DFF5"/>
<path d="M528.194 373.337C528.063 373.337 527.997 373.255 527.997 373.091V357.467C527.997 357.303 528.063 357.221 528.194 357.221H530.778C530.909 357.221 530.991 357.278 531.024 357.393L533.386 365.906C533.501 366.333 533.624 366.808 533.755 367.333C533.886 367.842 534.009 368.358 534.124 368.883C534.239 369.392 534.337 369.851 534.419 370.261H534.468C534.436 369.933 534.411 369.556 534.395 369.129C534.378 368.703 534.362 368.268 534.345 367.825C534.329 367.382 534.313 366.948 534.296 366.521C534.296 366.095 534.296 365.717 534.296 365.389V357.467C534.296 357.303 534.362 357.221 534.493 357.221H536.24C536.388 357.221 536.461 357.303 536.461 357.467V373.091C536.461 373.255 536.388 373.337 536.24 373.337H533.681C533.566 373.337 533.492 373.288 533.46 373.189L531.122 364.873C530.892 364.069 530.696 363.282 530.532 362.511C530.368 361.723 530.212 361.002 530.064 360.345H530.015C530.048 360.821 530.072 361.371 530.089 361.994C530.105 362.601 530.122 363.216 530.138 363.839C530.154 364.463 530.163 365.012 530.163 365.488V373.091C530.163 373.255 530.097 373.337 529.966 373.337H528.194Z" fill="#F5DFF5"/>
<path d="M520.423 373.484C519.045 373.484 517.987 373.074 517.249 372.254C516.511 371.434 516.142 370.204 516.142 368.563V362.043C516.142 360.37 516.511 359.123 517.249 358.303C517.987 357.483 519.045 357.073 520.423 357.073C521.817 357.073 522.884 357.483 523.622 358.303C524.36 359.123 524.729 360.37 524.729 362.043V368.563C524.729 370.204 524.36 371.434 523.622 372.254C522.884 373.074 521.817 373.484 520.423 373.484ZM520.423 371.368C521.096 371.368 521.596 371.139 521.924 370.679C522.268 370.22 522.441 369.474 522.441 368.44V362.141C522.441 361.092 522.268 360.337 521.924 359.878C521.596 359.419 521.096 359.189 520.423 359.189C519.767 359.189 519.267 359.419 518.922 359.878C518.594 360.337 518.43 361.092 518.43 362.141V368.44C518.43 369.474 518.594 370.22 518.922 370.679C519.267 371.139 519.767 371.368 520.423 371.368Z" fill="#F5DFF5"/>
<path d="M509.03 373.484C507.636 373.484 506.569 373.066 505.831 372.229C505.109 371.377 504.749 370.072 504.749 368.317V362.24C504.749 360.518 505.109 359.23 505.831 358.377C506.569 357.508 507.636 357.073 509.03 357.073C510.03 357.073 510.859 357.303 511.515 357.762C512.171 358.205 512.638 358.836 512.917 359.656C513.213 360.477 513.295 361.453 513.163 362.584C513.131 362.748 513.065 362.83 512.967 362.83H511.072C510.908 362.83 510.842 362.732 510.875 362.535C510.957 361.453 510.851 360.624 510.555 360.05C510.26 359.476 509.752 359.189 509.03 359.189C508.357 359.189 507.857 359.435 507.529 359.927C507.201 360.419 507.037 361.231 507.037 362.363V368.17C507.037 369.301 507.201 370.122 507.529 370.63C507.873 371.122 508.374 371.368 509.03 371.368C509.817 371.368 510.342 371.065 510.604 370.458C510.883 369.851 510.99 369.031 510.924 367.997C510.892 367.817 510.957 367.727 511.121 367.727H512.917C513.065 367.727 513.155 367.817 513.188 367.997C513.303 369.72 513.008 371.065 512.302 372.033C511.613 373 510.522 373.484 509.03 373.484Z" fill="#F5DFF5"/>
<path d="M616.227 347.091C616.08 347.091 616.006 347.009 616.006 346.845V331.221C616.006 331.057 616.08 330.975 616.227 330.975H618.073C618.22 330.975 618.294 331.057 618.294 331.221V344.975H622.231C622.379 344.975 622.452 345.065 622.452 345.245V346.845C622.452 347.009 622.379 347.091 622.231 347.091H616.227Z" fill="#F5DFF5"/>
<path d="M604.349 347.091C604.217 347.091 604.16 347.001 604.176 346.82L607.449 331.171C607.465 331.04 607.547 330.975 607.695 330.975H610.155C610.303 330.975 610.385 331.04 610.401 331.171L613.674 346.796C613.707 346.992 613.649 347.091 613.502 347.091H611.459C611.345 347.091 611.271 347.033 611.238 346.919L609.491 336.757C609.376 336.199 609.27 335.641 609.171 335.084C609.089 334.51 609.007 333.935 608.925 333.361H608.876C608.81 333.935 608.736 334.51 608.654 335.084C608.572 335.641 608.474 336.207 608.359 336.781L606.588 346.894C606.571 347.025 606.497 347.091 606.366 347.091H604.349ZM606.858 343.425L607.203 341.432H610.574L610.992 343.425H606.858Z" fill="#F5DFF5"/>
<path d="M593.607 347.091C593.476 347.091 593.41 347.009 593.41 346.845V331.221C593.41 331.057 593.476 330.975 593.607 330.975H596.191C596.322 330.975 596.404 331.032 596.437 331.147L598.799 339.66C598.914 340.087 599.037 340.562 599.168 341.087C599.299 341.596 599.422 342.112 599.537 342.637C599.652 343.146 599.75 343.605 599.832 344.015H599.881C599.849 343.687 599.824 343.31 599.808 342.883C599.791 342.457 599.775 342.022 599.758 341.579C599.742 341.136 599.726 340.702 599.709 340.275C599.709 339.849 599.709 339.471 599.709 339.143V331.221C599.709 331.057 599.775 330.975 599.906 330.975H601.653C601.801 330.975 601.874 331.057 601.874 331.221V346.845C601.874 347.009 601.801 347.091 601.653 347.091H599.094C598.979 347.091 598.905 347.042 598.873 346.943L596.535 338.627C596.306 337.823 596.109 337.036 595.945 336.265C595.781 335.477 595.625 334.756 595.477 334.099H595.428C595.461 334.575 595.485 335.125 595.502 335.748C595.518 336.355 595.535 336.97 595.551 337.593C595.567 338.217 595.576 338.766 595.576 339.242V346.845C595.576 347.009 595.51 347.091 595.379 347.091H593.607Z" fill="#F5DFF5"/>
<path d="M585.836 347.238C584.458 347.238 583.4 346.828 582.662 346.008C581.924 345.188 581.554 343.958 581.554 342.318V335.797C581.554 334.124 581.924 332.877 582.662 332.057C583.4 331.237 584.458 330.827 585.836 330.827C587.23 330.827 588.296 331.237 589.034 332.057C589.772 332.877 590.142 334.124 590.142 335.797V342.318C590.142 343.958 589.772 345.188 589.034 346.008C588.296 346.828 587.23 347.238 585.836 347.238ZM585.836 345.122C586.508 345.122 587.009 344.893 587.337 344.434C587.681 343.974 587.853 343.228 587.853 342.194V335.896C587.853 334.846 587.681 334.091 587.337 333.632C587.009 333.173 586.508 332.943 585.836 332.943C585.18 332.943 584.679 333.173 584.335 333.632C584.007 334.091 583.843 334.846 583.843 335.896V342.194C583.843 343.228 584.007 343.974 584.335 344.434C584.679 344.893 585.18 345.122 585.836 345.122Z" fill="#F5DFF5"/>
<path d="M574.878 347.238C573.91 347.238 573.139 347.042 572.565 346.648C571.991 346.254 571.589 345.713 571.36 345.024C571.146 344.319 571.073 343.499 571.138 342.564C571.155 342.383 571.228 342.293 571.36 342.293H573.18C573.328 342.293 573.394 342.383 573.377 342.564C573.279 343.417 573.369 344.064 573.648 344.507C573.927 344.95 574.353 345.172 574.927 345.172C575.469 345.172 575.87 345.016 576.133 344.704C576.395 344.376 576.527 343.859 576.527 343.154C576.527 342.564 576.436 342.063 576.256 341.653C576.076 341.227 575.772 340.858 575.346 340.546L573.303 338.947C572.582 338.389 572.049 337.782 571.704 337.126C571.36 336.453 571.196 335.633 571.212 334.665C571.228 333.435 571.548 332.492 572.172 331.836C572.795 331.163 573.689 330.827 574.853 330.827C576.215 330.827 577.207 331.229 577.831 332.033C578.454 332.836 578.7 333.944 578.569 335.354C578.569 335.568 578.503 335.674 578.372 335.674H576.502C576.371 335.674 576.313 335.568 576.33 335.354C576.412 334.6 576.33 334.001 576.084 333.558C575.838 333.115 575.452 332.894 574.927 332.894C574.484 332.894 574.132 333.041 573.869 333.337C573.623 333.616 573.492 334.05 573.476 334.641C573.476 335.215 573.582 335.699 573.795 336.092C574.009 336.486 574.32 336.847 574.73 337.175L576.723 338.701C577.232 339.094 577.634 339.496 577.929 339.906C578.241 340.316 578.462 340.784 578.593 341.309C578.741 341.817 578.815 342.424 578.815 343.129C578.815 344.425 578.495 345.434 577.855 346.156C577.232 346.878 576.24 347.238 574.878 347.238Z" fill="#F5DFF5"/>
<path d="M560.818 347.091C560.687 347.091 560.621 347.009 560.621 346.845V331.221C560.621 331.057 560.687 330.975 560.818 330.975H563.968C565.477 330.975 566.576 331.344 567.265 332.082C567.954 332.82 568.298 333.968 568.298 335.527C568.298 336.74 568.126 337.708 567.781 338.43C567.453 339.135 566.978 339.627 566.354 339.906L566.33 339.931L568.889 346.771C568.938 346.984 568.872 347.091 568.692 347.091H566.674C566.559 347.091 566.477 347.033 566.428 346.919L564.164 340.398H562.91V346.845C562.91 347.009 562.836 347.091 562.688 347.091H560.818ZM562.91 338.405H564.017C564.739 338.405 565.255 338.184 565.567 337.741C565.879 337.282 566.034 336.593 566.034 335.674C566.034 334.756 565.862 334.099 565.518 333.706C565.19 333.296 564.673 333.091 563.968 333.091H562.91V338.405Z" fill="#F5DFF5"/>
<path d="M550.914 347.091C550.766 347.091 550.692 347.009 550.692 346.845V331.221C550.692 331.057 550.758 330.975 550.889 330.975H557.163C557.295 330.975 557.36 331.057 557.36 331.221V332.82C557.36 333 557.295 333.091 557.163 333.091H552.981V337.889H556.794C556.926 337.889 556.991 337.979 556.991 338.159V339.66C556.991 339.824 556.926 339.906 556.794 339.906H552.981V344.975H557.163C557.295 344.975 557.36 345.065 557.36 345.245V346.845C557.36 347.009 557.295 347.091 557.163 347.091H550.914Z" fill="#F5DFF5"/>
<path d="M540.576 347.091C540.445 347.091 540.379 347.009 540.379 346.845V331.221C540.379 331.057 540.445 330.975 540.576 330.975H543.406C544.898 330.975 545.998 331.393 546.703 332.229C547.408 333.05 547.761 334.337 547.761 336.092C547.761 337.733 547.4 338.988 546.678 339.857C545.956 340.726 544.907 341.161 543.529 341.161H542.668V346.845C542.668 347.009 542.594 347.091 542.446 347.091H540.576ZM542.668 339.07H543.406C544.128 339.07 544.652 338.832 544.981 338.356C545.309 337.88 545.473 337.134 545.473 336.117C545.473 335.034 545.309 334.255 544.981 333.78C544.669 333.304 544.169 333.066 543.48 333.066H542.668V339.07Z" fill="#F5DFF5"/>
<path d="M529.518 347.091C529.387 347.091 529.321 347.009 529.321 346.845V331.221C529.321 331.057 529.387 330.975 529.518 330.975H532.668C534.177 330.975 535.276 331.344 535.965 332.082C536.654 332.82 536.998 333.968 536.998 335.527C536.998 336.74 536.826 337.708 536.481 338.43C536.153 339.135 535.678 339.627 535.054 339.906L535.03 339.931L537.589 346.771C537.638 346.984 537.572 347.091 537.392 347.091H535.374C535.259 347.091 535.177 347.033 535.128 346.919L532.864 340.398H531.61V346.845C531.61 347.009 531.536 347.091 531.388 347.091H529.518ZM531.61 338.405H532.717C533.439 338.405 533.955 338.184 534.267 337.741C534.579 337.282 534.734 336.593 534.734 335.674C534.734 334.756 534.562 334.099 534.218 333.706C533.89 333.296 533.373 333.091 532.668 333.091H531.61V338.405Z" fill="#F5DFF5"/>
<path d="M519.615 347.091C519.467 347.091 519.394 347.009 519.394 346.845V331.221C519.394 331.057 519.459 330.975 519.59 330.975H525.865C525.996 330.975 526.061 331.057 526.061 331.221V332.82C526.061 333 525.996 333.091 525.865 333.091H521.682V337.889H525.496C525.627 337.889 525.692 337.979 525.692 338.159V339.66C525.692 339.824 525.627 339.906 525.496 339.906H521.682V344.975H525.865C525.996 344.975 526.061 345.065 526.061 345.245V346.845C526.061 347.009 525.996 347.091 525.865 347.091H519.615Z" fill="#F5DFF5"/>
<path d="M511.801 347.091C511.654 347.091 511.58 347.009 511.58 346.845V333.091H509.021C508.873 333.091 508.8 333 508.8 332.82V331.221C508.8 331.057 508.873 330.975 509.021 330.975H516.452C516.583 330.975 516.649 331.057 516.649 331.221V332.82C516.649 333 516.583 333.091 516.452 333.091H513.868V346.845C513.868 347.009 513.794 347.091 513.647 347.091H511.801Z" fill="#F5DFF5"/>
<path d="M497.811 347.091C497.68 347.091 497.615 347.009 497.615 346.845V331.221C497.615 331.057 497.68 330.975 497.811 330.975H500.395C500.526 330.975 500.608 331.032 500.641 331.147L503.003 339.66C503.118 340.087 503.241 340.562 503.372 341.087C503.503 341.596 503.626 342.112 503.741 342.637C503.856 343.146 503.954 343.605 504.036 344.015H504.086C504.053 343.687 504.028 343.31 504.012 342.883C503.995 342.457 503.979 342.022 503.963 341.579C503.946 341.136 503.93 340.702 503.913 340.275C503.913 339.849 503.913 339.471 503.913 339.143V331.221C503.913 331.057 503.979 330.975 504.11 330.975H505.857C506.005 330.975 506.079 331.057 506.079 331.221V346.845C506.079 347.009 506.005 347.091 505.857 347.091H503.298C503.183 347.091 503.11 347.042 503.077 346.943L500.739 338.627C500.51 337.823 500.313 337.036 500.149 336.265C499.985 335.477 499.829 334.756 499.681 334.099H499.632C499.665 334.575 499.69 335.125 499.706 335.748C499.722 336.355 499.739 336.97 499.755 337.593C499.772 338.217 499.78 338.766 499.78 339.242V346.845C499.78 347.009 499.714 347.091 499.583 347.091H497.811Z" fill="#F5DFF5"/>
<path d="M492.064 347.09C491.932 347.09 491.867 347.008 491.867 346.844V331.22C491.867 331.056 491.932 330.974 492.064 330.974H493.934C494.081 330.974 494.155 331.056 494.155 331.22V346.844C494.155 347.008 494.081 347.09 493.934 347.09H492.064Z" fill="#F5DFF5"/>
</svg>
